<?xml version="1.0" encoding="utf-8"?>
<!-- Generator: Adobe Illustrator 25.1.0, SVG Export Plug-In . SVG Version: 6.00 Build 0)  -->
<svg version="1.1" xmlns="http://www.w3.org/2000/svg" xmlns:xlink="http://www.w3.org/1999/xlink" x="0px" y="0px"
	 viewBox="0 0 306.14 161.57" style="enable-background:new 0 0 306.14 161.57;" xml:space="preserve">
<style type="text/css">
	.st0{fill:#006C66;}
	.st1{fill:none;stroke:#007869;stroke-width:0.35;stroke-miterlimit:10;}
	.st2{clip-path:url(#SVGID_2_);fill:#006C66;}
	.st3{clip-path:url(#SVGID_2_);fill:#EF7C00;}
</style>
<g id="MPG_x5F_Minerva">
	<g>
		<path class="st0" d="M249.36,16.18c-17.35,0-31.46,14.11-31.46,31.46c0,17.35,14.11,31.46,31.46,31.46
			c17.35,0,31.46-14.11,31.46-31.46C280.82,30.29,266.71,16.18,249.36,16.18z M249.36,78.22c-16.87,0-30.58-13.72-30.58-30.59
			c0-16.86,13.72-30.58,30.58-30.58c16.86,0,30.58,13.72,30.58,30.58C279.94,64.5,266.22,78.22,249.36,78.22z"/>
		<path class="st0" d="M267.82,45.23c-0.44-0.91-0.14-1.51-0.27-2.17c-0.1-0.49-0.83-2.11-1.29-3.23c-0.22-0.53,1.13-0.4,0.13-2.3
			c-0.03-0.06,1.38-0.58-0.03-1.65c-0.79-0.6-1.35-1.34-1.78-2c-0.06-0.09-0.12-0.27,0.01-0.39c0.8-0.71,0.82-1.73-0.05-2.25
			c-0.63-0.38-1.34,0.01-2,0.43c-0.22,0.14-0.33,0.23-0.55,0.14c-0.12-0.05-0.34-0.2-0.54-0.34c0.82-0.79,0.97-1.57,0.91-1.69
			c-0.04-0.09-1.38-0.39-3.04,0.3c-0.04-0.02-0.08-0.04-0.12-0.06c0.68-1.18,0.3-2.01,0.25-2.07c0,0,0,0,0,0
			c1.24-1.73,2.48-2.89,3.69-4c0,0,0.03-0.03,0.03-0.03c0.08-0.08,0.11-0.17-0.04-0.26c-0.13-0.08-0.16-0.1-0.32-0.18
			c-4.08-2.27-8.74-3.47-13.44-3.47c-15.25,0-27.65,12.41-27.65,27.65c0,8.83,4.48,17.36,11.81,22.65c0.49,0.35,0.83,0.49,0.83,0.49
			c0.12,0.04,0.25,0.04,0.32-0.06l0.11-0.14c0.07-0.09,0.1-0.18,0.1-0.25c0-0.2-0.29-0.38-0.63-0.89c-0.99-1.47-1.43-3.14-1.43-4.54
			c0-1.53,0.47-2.92,1.36-4.08c1.1,1.15,3.51,3.26,3.46,5.19c-0.06,2.16-2.08,2.05-1.64,3.67c0.27,1.02,1.03,0.6,1.17,1.37
			c0.23,1.34,2.02,2.19,2.81,2.07c0.19-0.03,0.35,0.13,0.73,0.51c0.53,0.54,1.85,0.47,2.43,0.36c0.55-0.1,1.25,0.41,2.41,0.28
			c1.45-0.16,1.82-0.27,2.44-0.28c1.05-0.02,6.75-0.1,10.81,0.54c0.7,0.11,0.92-0.21,0.61-0.75c-1.47-2.56-1.67-4.73-0.83-7.47
			c1.5,0.1,3.65,0.51,6.49-1.2c1.01-0.6,1.57-1.89,1.52-2.85c-0.03-0.62-0.3-1.41-0.14-2.02c0.22-0.82,0.38-0.8,0.61-0.96
			c1.08-0.76,0.3-1.37,0.13-1.43c0.33-0.13,0.69-0.84,0.31-1.37c-0.19-0.21-0.78-1.86-0.1-2.21c0.73-0.37,1.57-0.53,2.42-0.9
			c0.58-0.24,1.04-0.92,0.71-1.82C270.1,50.45,267.89,45.37,267.82,45.23z M237.29,69.85c-0.21,0.04-0.89,0.07-0.74-0.82
			c0.09-0.55,0.69-0.78,0.99-0.47C237.48,68.99,237.33,69.41,237.29,69.85z M263.36,32.11c0.36-0.23,0.74-0.32,0.97-0.1
			c0.79,0.78-0.85,1.21-0.51,1.81c0.56,0.98,1.45,1.92,2.24,2.52c0.37,0.28,0.42,0.92-0.99,1.22c-1.42,0.29-7.08,1.79-10.07,4.95
			c-3.74,3.96-6.12,9.09-6.44,8.39c-0.33-0.71-1.08-0.83-0.96-1.03C252.96,40.62,261.38,33.35,263.36,32.11z M265.82,38.61
			c-0.31,0.88-2.75,1.67-2.63,1.05c0.05-0.28,0.01-0.65,0.19-0.68c0.27-0.05,1.04-0.32,2.24-0.62
			C265.74,38.32,265.9,38.39,265.82,38.61z M259.64,40.21c-0.06-0.36,2.56-1.24,2.65-0.98c0.17,0.48-0.54,1.77-1.42,2.1
			c-1,0.37-1.41,0.26-1.37,0.12C259.56,41.18,259.69,40.54,259.64,40.21z M253.55,53.88c-1.21,0.74-1.86-0.67-2.03-0.92
			c-0.07-0.11-0.27-0.42-0.16-0.95c0.08-0.42,0.15-0.99-0.12-2.79c-0.12-0.79,1.52-2.76,1.89-3.1c0.38-0.36,0.94,0.18,0.98,0.76
			c0.07,1.1-0.55,1.68-1.18,2.15c-0.78,0.58-0.92,1.33-0.78,1.53c0.06,0.08,0.41,0.08,0.56-0.25c0.47-0.99,1.8-1.49,2.01-2.02
			c0.33-0.81,0.09-1.34,0.06-1.68c-0.03-0.3,0.26-0.37,0.48-0.34c0.28,0.04,0.41,0.43,0.55,0.8c0.86,2.25-1.31,3.61-1.66,4.14
			C253.99,51.47,254.49,53.3,253.55,53.88z M255.37,45.16c-0.65,0.44-1.58-0.16-1.39-0.42c1.2-1.71,2.8-2.9,3.44-3.3
			c1.03-0.64,1.14-0.68,1.19-0.32c0.03,0.22,0.04,1.34-0.79,2.25c-0.69,0.75-1.38,0.69-1.73,0.77
			C255.85,44.18,255.87,44.82,255.37,45.16z M249.6,52.83c-0.3-0.07-0.41-0.64-0.35-0.87c0.13-0.51,0.92-1.56,1.2-1.93
			c0.07-0.09,0.21-0.01,0.23,0.1C250.85,51.35,250.68,53.07,249.6,52.83z M259.24,30.62c1.08-0.49,2.13-0.5,2.24-0.48
			c0.25,0.03-0.55,1.44-1.96,2.05c-1.46,0.63-2.55,0.74-2.67,0.68C256.67,32.77,258.09,31.14,259.24,30.62z M234.28,54.07
			c-0.43-0.5-0.83-0.77-0.88-0.74c-0.12,0.08-0.82,1.28-1.06,2.68c-1.36-2.61-2.12-5.24-2.24-8.37
			c-0.42-10.61,8.47-19.15,19.31-19.11c2.47,0.01,4.51,0.47,6.73,1.37c-0.5,0.62-0.86,1.37-1.1,1.99c-0.01-0.58-0.16-1.02-0.12-1.38
			c0.03-0.22-1.54,0.27-2.92,2.47c-0.32,0.51-0.52,1.08-0.65,1.6c-0.03-0.83-0.22-1.47-0.28-1.46c-0.14,0.04-1.73,0.69-2.55,2.63
			c-0.14,0.34-0.25,0.69-0.33,1.03c-0.07-0.59-0.22-0.98-0.27-0.98c-0.1,0-1.76,0.69-2.58,2.67c-0.19,0.46-0.29,0.93-0.34,1.37
			c-0.15-0.69-0.41-1.12-0.5-1.01c-0.57,0.73-1.69,1.05-2.29,2.88c-0.14,0.43-0.2,0.86-0.2,1.26c-0.25-0.62-0.59-0.98-0.67-0.96
			c-0.16,0.03-1.85,1.64-2.1,3.26c-0.1,0.64-0.05,1.23,0.05,1.73c-0.32-0.52-0.75-0.9-0.93-1.44c-0.27,0.14-1.7,1.49-1.74,3.21
			c-0.02,0.67,0.08,1.3,0.22,1.83c-0.48-0.86-1.15-1.27-1.23-1.22c-0.12,0.08-1.19,1.23-1.44,3.31
			C234.1,53.18,234.16,53.64,234.28,54.07z M256.48,30.19c0.85-1.01,2.3-1.82,2.46-1.72c0.17,0.1-0.24,1.66-1.18,2.58
			c-0.94,0.93-2.4,1.83-2.57,1.82C255.02,32.86,255.71,31.1,256.48,30.19z M253.71,34.1c-0.83,0.67-1.2,1.12-1.69,1.9
			c-0.16,0.27-0.57-1.49,0.51-3.18c0.66-1.03,1.97-1.96,1.94-1.84C254.38,31.4,255.11,32.96,253.71,34.1z M250.68,36.35
			c-1.01,1.51-1.07,0.99-2.18,2.47c-0.06,0.08-0.08-1.93,0.31-2.81c0.62-1.4,1.71-2.22,1.87-2.25
			C250.84,33.73,251.24,35.51,250.68,36.35z M247.36,39.37c-0.52,0.91-1,0.7-1.86,1.99c-0.1,0.14-0.33-1.07,0.19-2.7
			c0.4-1.26,1.64-2.04,1.77-2.08C247.66,36.54,247.98,38.29,247.36,39.37z M244.27,42.57c-0.53,1.16-0.87,1.19-1.49,1.91
			c-0.11,0.12-0.57-1.1-0.12-2.64c0.36-1.23,1.18-1.69,1.58-2.1C244.4,39.58,244.83,41.34,244.27,42.57z M241.76,44.55
			c0,0.35-0.04,0.55-0.14,0.9c-0.38,1.3-1.14,1.85-1.56,2.44c-0.17-0.38-0.47-0.93-0.48-1.76c0-1.57,0.95-2.91,1.55-3.34
			C241.35,42.79,241.76,43.74,241.76,44.55z M239.2,48.39c-0.03,1.83-1.18,2.9-1.52,3.24c-0.21-0.36-0.63-1.3-0.66-2.27
			c-0.06-1.89,0.72-2.55,1.06-2.92C238.24,46.98,239.21,47.41,239.2,48.39z M235.57,50.27c0.53,0.27,1.16,1.03,1.22,2.45
			c0.06,1.43-0.96,2.63-1.36,2.82c-0.28-1.09-0.81-1.32-0.8-2.4C234.65,51.96,235.25,50.66,235.57,50.27z M237.75,54.03
			c1.37-0.6,2.87-0.5,2.93-0.45c0.06,0.06-0.44,1.75-1.77,2.46c-1.33,0.71-2.84,0.78-2.97,0.61
			C235.87,56.56,236.38,54.63,237.75,54.03z M237.65,53.01c0.09-0.45,0.9-1.96,2.12-2.51l0,0c1.23-0.55,2.65-0.51,2.81-0.44
			c0.16,0.07-0.51,1.67-1.74,2.26C239.45,52.99,238.9,52.61,237.65,53.01z M239.71,49.48c0.06-0.14,1.06-1.93,2.23-2.48
			c1.16-0.54,2.57-0.43,2.66-0.4c0.1,0.03-0.53,1.62-1.86,2.28C241.42,49.53,239.65,49.62,239.71,49.48z M242.38,45.9
			c-0.1-0.07,1.32-1.93,2.5-2.47c1.04-0.48,2.4-0.38,2.51-0.3c0.11,0.08-0.55,1.64-1.92,2.24C244.16,45.93,242.48,45.97,242.38,45.9
			z M245.59,42.35c-0.08-0.04,1-1.88,2.22-2.35c1.16-0.45,2.31-0.04,2.66-0.02c0.28,0.02-0.4,1.35-1.99,1.94
			C247.15,42.42,245.79,42.46,245.59,42.35z M249.18,38.94c0.02-0.09,1.21-1.76,2.44-2.19c1.17-0.4,2.59-0.13,2.74-0.07
			c0.15,0.06-0.83,1.53-2.32,1.97C250.69,39.07,249.16,39.03,249.18,38.94z M252.81,35.99c-0.16-0.11,1.28-1.71,2.45-2.16
			c1.14-0.43,2.38-0.35,2.48-0.3c0.1,0.06-0.75,1.45-2.13,2.01C254.31,36.06,252.97,36.1,252.81,35.99z M232.94,68.72
			c-6.48-5.16-10.36-12.95-10.36-21.08c0-14.76,12.01-26.77,26.77-26.77c4.31,0,8.63,1.08,12.42,3.05c0.08,0.04,0.09,0.14,0.02,0.2
			c-1.11,0.97-2.66,2.88-3.05,3.41c-2.95-1.38-6.1-2.09-9.39-2.09c-12.24,0-22.19,9.95-22.19,22.19c0,5.46,1.85,10.44,5.34,14.44
			c-0.2,0.46-0.56,1.48-0.56,2.83C231.95,66.02,232.15,67.3,232.94,68.72z M232.98,61.27c0,0-0.01,0.01-0.01,0.01
			c-3.22-3.8-4.92-8.5-4.92-13.64c0-11.75,9.56-21.31,21.31-21.31c3.1,0,6.08,0.65,8.87,1.93c-0.37,0.17-0.79,0.42-1.22,0.78
			c-2.45-1.04-4.92-1.53-7.64-1.53c-11.1,0-20.14,9.03-20.14,20.13c0,4.82,1.5,9.05,4.45,12.6
			C233.5,60.49,233.26,60.86,232.98,61.27z M234.04,59.6c-0.39-0.37-1.23-1.3-1.31-2.5c0-0.06-0.01-0.12-0.01-0.17
			c0-1.29,0.57-2.56,0.71-2.7c0.14-0.14,1.6,0.99,1.62,2.62C235.07,58.24,234.43,59.05,234.04,59.6z M236.45,57.44
			c1.16-0.55,2.88-0.42,2.79-0.34c-0.09,0.08-0.55,1.75-1.85,2.41c-1.3,0.65-2.16,0.48-2.63,0.39
			C235.45,59.13,235.3,57.98,236.45,57.44z M238.01,71.36c-0.2-0.79-0.12-1.88,0.15-2.17c0.52-0.25,1.47-0.35,1.49-0.05
			c0.03,0.48-0.33,1.63,0.09,3.06C239.64,72.43,238.35,72.33,238.01,71.36z M238.1,68.05c-0.1-0.59,0.47-1.17,0.46-2.46
			c-0.01-1.59-1.98-3.77-3.31-5.18c0.62,0,1.44-0.15,2.36-0.57c1.98-0.92,2.37-3.02,2.42-3.1c0.03-0.04-0.44-0.13-1.12-0.14
			c0.07-0.04,0.15-0.07,0.22-0.11c1.94-1.04,2.44-3.28,2.35-3.33c-0.04-0.02-0.52-0.1-1.19-0.08c0.19-0.06,0.38-0.13,0.59-0.21
			c2.05-0.81,2.62-3.09,2.55-3.17c-0.03-0.03-0.44-0.11-1.04-0.13c0.18-0.07,0.37-0.15,0.56-0.25c1.87-0.93,2.52-3.02,2.42-3.09
			c-0.04-0.03-0.42-0.1-0.97-0.11c0.42-0.09,0.87-0.23,1.35-0.44c2-0.88,2.65-2.79,2.56-2.88c-0.04-0.03-0.38-0.13-0.89-0.17
			c0.4-0.09,0.84-0.21,1.3-0.37c1.98-0.68,2.78-2.57,2.66-2.58c-0.27-0.02-0.64-0.15-1.11-0.24c0.54-0.03,1.17-0.13,1.96-0.4
			c2.14-0.72,2.9-2.01,2.94-2.57c0-0.04-0.26-0.15-0.67-0.24c0.49-0.09,0.98-0.21,1.39-0.38c2-0.81,2.83-2.77,2.9-2.94
			c0.36-0.12,0.75-0.27,1.16-0.45c0.21-0.09,0.4-0.19,0.58-0.3c0.1,0.07,0.25,0.19,0.49,0.33c0.3,0.19,0.41,0.24,0.26,0.37
			c-6.8,5.8-11.9,13.11-14.12,16.67c-0.06,0.1-0.18,0.08-0.37,0.07c-2.38-0.16-3.73,2.68-2.67,5.34c-0.14,0.54-1.27,1.58-1.35,1.66
			c-0.09,0.08-0.31,0.41,0.07,0.37c0.56-0.05,1.27-0.94,1.61-1.34c0.14,0.18,0.67,0.61,0.41,0.86c-2.02,1.99-4.03,3.06-4.19,3.13
			c-0.76,0.37,1.26,0.63,4.71-2.49c0.2-0.18,0.44,0.72,0.75,1.11c-0.59,1.95,0.87,5.73,0.64,6.91c-0.04,0.21-0.16,0.79-0.85,0.81
			c-3.42,0.07-3.75-0.09-5.49,0.43c-0.81,0.24-0.6,0.77-0.01,0.61c0.67-0.18,1.37-0.45,5.06-0.22c0.9,0.06,1.94-0.18,1.94-1.71
			c0.01-1.38-1.09-5.51-0.72-6.07c0.49,0.37,0.85,0.38,1.03,0.42c-0.05,1.35,2.12,5.69,1.15,8.09c-0.36,0.89-1.93,0.82-4.62,0.56
			C239.68,67.61,238.19,68.6,238.1,68.05z M248.62,71c-1.78,0.62-2.48-1.47-2.19-1.92c0.18-0.27,1.3,0.31,2.18-0.26
			C249.28,68.4,249.65,70.65,248.62,71z M240.53,72.31c-0.25-1.1-0.35-3.01,0.11-3.44c0.09-0.08,1.46-0.28,1.44,0.03
			c-0.11,1.32-0.64,2.79,0.36,4.25C242.82,73.7,240.86,73.78,240.53,72.31z M243.93,73.57c-0.48-0.12-1.8-2.22-0.72-4.73
			c0.11-0.27,1.76-0.1,2.04-0.02c0.28,0.08-0.23,2.05,2.04,2.93C247.51,71.84,247.27,74.39,243.93,73.57z M258.09,66.56
			c-0.77,2.65-1.15,3.71,0,6.58c0.15,0.38,0.27,0.67-0.07,0.61c-2.31-0.4-2.81-0.78-10.08-0.16c-0.52,0.04,0.17-1.01,0.09-1.73
			c0.66-0.09,1.72-0.39,1.95-1.47c0.27-1.31-0.64-2.27-0.54-2.46c1.03-2.01-0.07-4.24-0.94-7.97c-0.08-0.35,0.12-0.5,0.27-0.34
			c4.67,5.05,7.65,6.06,9.25,6.54C258.17,66.21,258.14,66.39,258.09,66.56z M270.03,52.76c-0.98,0.86-2.48,0.93-3.08,1.49
			c-0.32,0.29-0.46,0.74-0.12,1.55c0.2,0.47,0.33,0.52-0.34,0.7c-1.09,0.29-1.24,1.72-2.62,1.46c-0.55-0.1-0.16,0.25,0.04,0.27
			c0.79,0.08,1.11-0.15,1.38-0.41c0.28-0.26,0.65-0.73,1.07-0.89c0.44-0.17,0.88-0.15,0.89,0.17c0.01,0.25-0.55,0.65-0.78,0.76
			c0.28,0.15,1.15,0.59,0.41,1.09c-0.58,0.39-1.37-0.15-1.49-0.22c-0.17-0.1-0.5-0.05-0.39,0.08c0.43,0.52,1.58,0.39,1.37,0.66
			c-1.06,1.42-0.2,2.26-0.52,3.69c-0.33,1.45-2.31,2.25-3.84,2.52c-5.2,0.94-10.26-3.49-13.23-6.82c0.27-0.63,0.24-1.46-0.04-1.17
			c-0.26,0.28-0.21,0.74-0.83,0.9c-1.19,0.3-1.71-1.77-2.08-2.13c-1.45-1.42-2.02-3.43-1.16-5.18c0.87-1.77,2.69-1.42,3.42-0.35
			c0.9,1.33,0.48,2.09,1,2.49c0.72,0.56,1.44,0.06,1.64,0.01c0.55-0.15,0.51,1.3,2.38,1.23c2.01-0.07,1.78-3.2,2.07-3.48
			c2.58-2.52,1.26-4.76,0.79-5.28c-0.13-0.14,0.29-1.06,0.44-1.1c1.52-0.33,2.37-1.3,2.83-2.33c0,0,2.52-0.04,3.41-1.86
			c0.24-0.48,0.98,0.47,2.66-0.85c0.19-0.15,0.37-0.08,0.44,0.1c1.08,2.65,1.53,3.38,1.45,4.73c-0.06,0.98,2.62,6.43,2.82,6.9
			C270.25,52.02,270.28,52.54,270.03,52.76z"/>
		<path class="st0" d="M263.97,43.16c-1.46,0.05-3.17,1.85-3.72,2.1c-0.58,0.26-0.38,0.43-0.04,0.3c0.73-0.27,1.77-1.38,3.2-1.9
			c1.13-0.41,1.06,0.52,1.49,0.47C265.1,44.11,264.82,43.12,263.97,43.16z"/>
		<path class="st0" d="M264.3,44.59c-0.12,0.03,0.13,0.65-0.51,0.69c-1.38,0.08-2.47,1.39-3.31,1.78c-0.84,0.39-1.01,0.38-1.14,0.42
			c-0.11,0.03-0.07,0.17,0.02,0.19c3.51,0.47,4.86,0.34,4.89,0.21c0.06-0.24-0.2-0.36-0.14-0.52c0.13-0.39,0.2-1.13,0.05-1.64
			c-0.06-0.24,0.52-0.08,0.52-0.4C264.69,45.15,264.51,44.54,264.3,44.59z M263.76,47.36c-0.07,0.27-1.63,0.15-2.49,0.07
			c-0.2-0.02-0.54-0.05,0.11-0.44c0.51-0.31,1.22-0.82,2.14-1c0.08-0.01,0.22,0.01,0.26,0.18
			C263.87,46.61,263.83,47.08,263.76,47.36z"/>
		<path class="st0" d="M268.35,52.37c-0.27,0-1.35,0.49-1.76,0.75c-0.23,0.15-1.33,0.83-1.26-0.25c0.03-0.38,0.27-1.31,0.27-1.56
			c-0.01-0.39-0.32-0.23-0.33-0.01c-0.01,0.54-0.12,0.95-0.23,1.58c-0.09,0.54,0.37,1.21,1.1,0.82c0.61-0.32,1.43-0.88,2.16-1.02
			C268.5,52.65,268.53,52.37,268.35,52.37z"/>
		<path class="st0" d="M248.01,56.2c-0.21-0.08-0.15,0.35-0.43,0.3c-0.37-0.06-0.06-0.39-0.54-0.9c-0.24-0.25-0.84-0.36-1.28-1.07
			c-0.7-1.12-0.1-3.61,0.92-3.26c0.57,0.2,0.47,1.52,0.3,2.42c-0.1,0.55,0.75,0.82,0.83,0.63c0.13-0.32-0.32-0.29-0.42-0.59
			c-0.16-0.45,1.05-2.27-0.53-2.8c-1.15-0.38-1.91,1.07-1.77,2.67c0.12,1.35,1.02,1.91,1.53,2.1c0.7,0.26,0.17,1.21,1.11,1.21
			C248.15,56.94,248.24,56.29,248.01,56.2z"/>
		<path class="st0" d="M257.24,26.18c0.05,0.02,0.1,0,0.14-0.04l1.95-2.47c0.05-0.06,0.03-0.16-0.05-0.19
			c-0.11-0.04-0.22-0.09-0.33-0.13c-0.05-0.02-0.11,0-0.14,0.04l-1.96,2.48c-0.05,0.07-0.02,0.16,0.06,0.19
			C257.01,26.1,257.12,26.14,257.24,26.18z"/>
		<path class="st0" d="M253.62,25.18c0.11,0.02,0.22,0.04,0.34,0.07c0.06,0.01,0.12-0.02,0.14-0.07l1.14-2.83
			c0.03-0.07-0.01-0.15-0.09-0.16c-0.13-0.03-0.25-0.05-0.38-0.08c-0.03-0.01-0.07,0.01-0.08,0.04c-0.14,0.36-0.94,2.33-1.16,2.87
			C253.5,25.09,253.54,25.16,253.62,25.18z"/>
		<path class="st0" d="M249.6,24.78c0.11,0,0.23,0,0.34,0.01c0.06,0,0.12-0.05,0.12-0.11l0.28-3c0.01-0.07-0.05-0.13-0.12-0.13
			c-0.11,0-0.23-0.01-0.34-0.01c-0.06,0-0.12,0.05-0.12,0.11l-0.28,3C249.47,24.72,249.53,24.78,249.6,24.78z"/>
		<path class="st0" d="M245.69,25.08c0.11-0.02,0.22-0.03,0.34-0.05c0.07-0.01,0.12-0.08,0.1-0.14l-0.57-2.96
			c-0.01-0.06-0.07-0.11-0.14-0.1c-0.11,0.02-0.23,0.03-0.34,0.05c-0.07,0.01-0.11,0.08-0.1,0.14l0.57,2.95
			C245.56,25.05,245.62,25.09,245.69,25.08z"/>
		<path class="st0" d="M241.7,25.99c0.03,0.05,0.09,0.08,0.15,0.06c0.11-0.04,0.22-0.07,0.32-0.11c0.07-0.02,0.1-0.1,0.07-0.17
			l-1.35-2.72c-0.03-0.06-0.09-0.08-0.15-0.06c-0.11,0.04-0.22,0.08-0.32,0.12c-0.07,0.02-0.1,0.1-0.07,0.17L241.7,25.99z"/>
		<path class="st0" d="M237.97,27.71c0.04,0.04,0.1,0.05,0.15,0.03c0.1-0.06,0.2-0.11,0.3-0.17c0.07-0.04,0.09-0.13,0.03-0.19
			l-2.02-2.31c-0.04-0.04-0.1-0.05-0.15-0.03c-0.1,0.06-0.2,0.12-0.3,0.18c-0.07,0.04-0.08,0.13-0.03,0.19L237.97,27.71z"/>
		<path class="st0" d="M234.51,30.16c0.05,0.03,0.11,0.03,0.15-0.01c0.09-0.08,0.18-0.15,0.27-0.23c0.06-0.05,0.06-0.15-0.01-0.19
			l-2.56-1.78c-0.05-0.03-0.11-0.03-0.15,0.01c-0.09,0.08-0.18,0.16-0.26,0.23c-0.06,0.05-0.05,0.15,0.01,0.19L234.51,30.16z"/>
		<path class="st0" d="M231.49,33.27c0.05,0.02,0.11,0,0.14-0.04c0.07-0.09,0.15-0.18,0.23-0.27c0.05-0.06,0.03-0.16-0.05-0.19
			l-2.94-1.15c-0.05-0.02-0.11,0-0.14,0.04c-0.07,0.09-0.14,0.19-0.22,0.28c-0.05,0.06-0.02,0.16,0.05,0.19L231.49,33.27z"/>
		<path class="st0" d="M225.93,36.49l3.15,0.44c0.05,0.01,0.1-0.02,0.12-0.06c0.06-0.11,0.11-0.21,0.17-0.32
			c0.04-0.08,0-0.17-0.09-0.18l-3.17-0.44c-0.05-0.01-0.1,0.02-0.13,0.07c-0.05,0.11-0.11,0.21-0.16,0.32
			C225.8,36.39,225.85,36.48,225.93,36.49z"/>
		<path class="st0" d="M224.2,41.27l3.21-0.31c0.05,0,0.09-0.04,0.1-0.09c0.04-0.12,0.07-0.23,0.11-0.35
			c0.03-0.08-0.04-0.17-0.13-0.16l-3.23,0.31c-0.05,0-0.09,0.04-0.11,0.09c-0.03,0.12-0.06,0.24-0.09,0.35
			C224.05,41.2,224.12,41.27,224.2,41.27z"/>
		<path class="st0" d="M226.64,45.09c0.01-0.12,0.03-0.25,0.04-0.37c0.01-0.09-0.07-0.16-0.16-0.13l-3.13,1.09
			c-0.05,0.02-0.08,0.06-0.08,0.11c-0.01,0.12-0.02,0.25-0.02,0.37c0,0.09,0.08,0.15,0.16,0.12l3.11-1.08
			C226.61,45.17,226.64,45.13,226.64,45.09z"/>
		<path class="st0" d="M226.56,49.36c-0.01-0.13-0.02-0.26-0.03-0.39c-0.01-0.09-0.11-0.15-0.19-0.1l-2.84,1.86
			c-0.04,0.03-0.06,0.07-0.05,0.12c0.02,0.12,0.03,0.25,0.05,0.37c0.01,0.09,0.11,0.13,0.19,0.08l2.81-1.85
			C226.55,49.45,226.57,49.41,226.56,49.36z"/>
		<path class="st0" d="M227.27,53.64c-0.03-0.13-0.07-0.26-0.1-0.39c-0.02-0.1-0.14-0.13-0.21-0.05l-2.31,2.54
			c-0.03,0.03-0.04,0.08-0.03,0.12c0.04,0.12,0.08,0.24,0.13,0.37c0.03,0.09,0.14,0.11,0.21,0.04l2.28-2.51
			C227.27,53.72,227.28,53.68,227.27,53.64z"/>
		<path class="st0" d="M228.45,57.43l-1.63,3.1c-0.02,0.04-0.02,0.08,0,0.12c0.07,0.12,0.14,0.23,0.2,0.35
			c0.05,0.08,0.17,0.08,0.21-0.01l1.61-3.06c0.02-0.03,0.02-0.08,0-0.11c-0.06-0.12-0.13-0.25-0.19-0.38
			C228.63,57.35,228.5,57.34,228.45,57.43z"/>
		<path class="st0" d="M230.74,60.91c-0.06-0.08-0.19-0.06-0.22,0.04l-0.87,3.59c-0.01,0.04,0,0.08,0.03,0.11
			c0.09,0.11,0.18,0.21,0.27,0.31c0.07,0.07,0.19,0.04,0.21-0.05l0.86-3.55c0.01-0.04,0-0.07-0.02-0.1
			C230.92,61.15,230.83,61.03,230.74,60.91z"/>
	</g>
</g>
<g id="MPG_x5F_MPI_x5F_Trennlinie_x2F_Parting_x5F_Line">
	<line class="st1" x1="207.09" y1="16.16" x2="207.09" y2="79.21"/>
</g>
<g id="MPI_x5F_Platzhalter_x2F_Placeholder">
	<g>
		<defs>
			<rect id="SVGID_1_" x="133.52" y="10.54" width="66.36" height="74.2"/>
		</defs>
		<clipPath id="SVGID_2_">
			<use xlink:href="#SVGID_1_"  style="overflow:visible;"/>
		</clipPath>
		<path class="st2" d="M134.26,76.56c0.22,0,0.4-0.18,0.4-0.4c0-0.22-0.18-0.4-0.4-0.4c-0.22,0-0.4,0.18-0.4,0.4
			C133.86,76.38,134.04,76.56,134.26,76.56"/>
		<path class="st2" d="M134.26,80.98c0.41,0,0.74-0.33,0.74-0.74c0-0.41-0.33-0.74-0.74-0.74c-0.41,0-0.74,0.33-0.74,0.74
			C133.52,80.65,133.85,80.98,134.26,80.98"/>
		<path class="st2" d="M134.26,84.63c0.17,0,0.31-0.14,0.31-0.31s-0.14-0.31-0.31-0.31c-0.17,0-0.31,0.14-0.31,0.31
			S134.09,84.63,134.26,84.63"/>
		<path class="st2" d="M138.34,72.72c0.36,0,0.65-0.29,0.65-0.65c0-0.36-0.29-0.65-0.65-0.65s-0.65,0.29-0.65,0.65
			C137.69,72.43,137.98,72.72,138.34,72.72"/>
		<path class="st2" d="M138.34,77.54c0.76,0,1.38-0.62,1.38-1.38s-0.62-1.38-1.38-1.38c-0.76,0-1.38,0.62-1.38,1.38
			S137.58,77.54,138.34,77.54"/>
		<path class="st2" d="M138.34,81.12c0.49,0,0.89-0.4,0.89-0.89s-0.4-0.89-0.89-0.89s-0.89,0.4-0.89,0.89S137.85,81.12,138.34,81.12
			"/>
		<path class="st2" d="M138.34,84.63c0.17,0,0.31-0.14,0.31-0.31s-0.14-0.31-0.31-0.31c-0.17,0-0.31,0.14-0.31,0.31
			S138.17,84.63,138.34,84.63"/>
		<path class="st2" d="M142.42,68.3c0.17,0,0.31-0.14,0.31-0.31s-0.14-0.31-0.31-0.31c-0.17,0-0.31,0.14-0.31,0.31
			S142.26,68.3,142.42,68.3"/>
		<path class="st2" d="M142.42,73.66c0.89,0,1.61-0.71,1.61-1.59c0-0.88-0.72-1.59-1.61-1.59c-0.89,0-1.61,0.71-1.61,1.59
			C140.81,72.95,141.54,73.66,142.42,73.66"/>
		<path class="st2" d="M142.42,77.54c0.76,0,1.38-0.62,1.38-1.38s-0.62-1.38-1.38-1.38c-0.76,0-1.38,0.62-1.38,1.38
			S141.66,77.54,142.42,77.54"/>
		<path class="st2" d="M146.51,68.94c0.53,0,0.96-0.42,0.96-0.95c0-0.52-0.43-0.95-0.96-0.95c-0.53,0-0.96,0.42-0.96,0.95
			C145.55,68.52,145.98,68.94,146.51,68.94"/>
		<path class="st2" d="M146.51,73.85c0.98,0,1.77-0.79,1.77-1.77c0-0.98-0.79-1.77-1.77-1.77c-0.98,0-1.77,0.79-1.77,1.77
			C144.73,73.05,145.53,73.85,146.51,73.85"/>
		<path class="st2" d="M146.51,76.85c0.38,0,0.69-0.31,0.69-0.69c0-0.38-0.31-0.69-0.69-0.69c-0.38,0-0.69,0.31-0.69,0.69
			C145.82,76.54,146.13,76.85,146.51,76.85"/>
		<path class="st2" d="M150.59,69.48c0.82,0,1.49-0.67,1.49-1.49c0-0.82-0.66-1.49-1.49-1.49s-1.49,0.67-1.49,1.49
			C149.1,68.81,149.77,69.48,150.59,69.48"/>
		<path class="st2" d="M150.59,73.85c0.97,0,1.75-0.79,1.75-1.77c0-0.98-0.78-1.77-1.75-1.77s-1.75,0.79-1.75,1.77
			C148.84,73.05,149.62,73.85,150.59,73.85"/>
		<path class="st2" d="M154.67,64.22c0.17,0,0.31-0.14,0.31-0.31s-0.14-0.31-0.31-0.31c-0.17,0-0.31,0.14-0.31,0.31
			S154.5,64.22,154.67,64.22"/>
		<path class="st2" d="M154.67,69.82c1.01,0,1.82-0.82,1.82-1.83c0-1.01-0.82-1.82-1.82-1.82c-1.01,0-1.82,0.82-1.82,1.82
			C152.84,69,153.66,69.82,154.67,69.82"/>
		<path class="st2" d="M154.67,73.58c0.83,0,1.51-0.67,1.51-1.51s-0.67-1.51-1.51-1.51s-1.51,0.67-1.51,1.51
			S153.84,73.58,154.67,73.58"/>
		<path class="st2" d="M158.75,43.81c0.17,0,0.31-0.14,0.31-0.31c0-0.17-0.14-0.31-0.31-0.31c-0.17,0-0.31,0.14-0.31,0.31
			C158.45,43.67,158.58,43.81,158.75,43.81"/>
		<path class="st2" d="M158.75,47.89c0.17,0,0.31-0.14,0.31-0.31c0-0.17-0.14-0.31-0.31-0.31c-0.17,0-0.31,0.14-0.31,0.31
			C158.45,47.75,158.58,47.89,158.75,47.89"/>
		<path class="st2" d="M158.75,51.97c0.17,0,0.31-0.14,0.31-0.31c0-0.17-0.14-0.31-0.31-0.31c-0.17,0-0.31,0.14-0.31,0.31
			C158.45,51.83,158.58,51.97,158.75,51.97"/>
		<path class="st2" d="M158.75,64.78c0.48,0,0.86-0.39,0.86-0.87s-0.39-0.87-0.86-0.87s-0.87,0.39-0.87,0.87
			S158.27,64.78,158.75,64.78"/>
		<path class="st2" d="M158.75,70.13c1.18,0,2.14-0.96,2.14-2.14s-0.96-2.14-2.14-2.14s-2.14,0.96-2.14,2.14
			S157.57,70.13,158.75,70.13"/>
		<path class="st2" d="M158.75,73.44c0.74,0,1.34-0.61,1.34-1.36s-0.6-1.36-1.34-1.36c-0.74,0-1.34,0.61-1.34,1.36
			S158.01,73.44,158.75,73.44"/>
		<path class="st2" d="M158.75,80.55c0.17,0,0.31-0.14,0.31-0.31s-0.14-0.31-0.31-0.31c-0.17,0-0.31,0.14-0.31,0.31
			S158.58,80.55,158.75,80.55"/>
		<path class="st2" d="M158.75,84.63c0.17,0,0.31-0.14,0.31-0.31s-0.14-0.31-0.31-0.31c-0.17,0-0.31,0.14-0.31,0.31
			S158.58,84.63,158.75,84.63"/>
		<path class="st3" d="M162.83,31.56c0.17,0,0.31-0.14,0.31-0.31c0-0.17-0.14-0.31-0.31-0.31c-0.17,0-0.31,0.14-0.31,0.31
			C162.53,31.43,162.66,31.56,162.83,31.56"/>
		<path class="st2" d="M162.83,36.1c0.42,0,0.76-0.34,0.76-0.76c0-0.42-0.34-0.76-0.76-0.76c-0.42,0-0.76,0.34-0.76,0.76
			C162.07,35.76,162.41,36.1,162.83,36.1"/>
		<path class="st2" d="M162.83,40.48c0.58,0,1.06-0.47,1.06-1.06s-0.47-1.06-1.06-1.06c-0.58,0-1.06,0.47-1.06,1.06
			S162.25,40.48,162.83,40.48"/>
		<path class="st2" d="M162.83,44.65c0.62,0,1.13-0.51,1.13-1.15c0-0.64-0.51-1.15-1.13-1.15c-0.62,0-1.13,0.51-1.13,1.15
			C161.7,44.14,162.21,44.65,162.83,44.65"/>
		<path class="st2" d="M162.83,48.67c0.61,0,1.1-0.49,1.1-1.09c0-0.6-0.49-1.09-1.1-1.09c-0.61,0-1.1,0.49-1.1,1.09
			C161.74,48.19,162.23,48.67,162.83,48.67"/>
		<path class="st2" d="M162.83,52.51c0.47,0,0.85-0.38,0.85-0.84s-0.38-0.85-0.85-0.85c-0.47,0-0.85,0.38-0.85,0.85
			S162.36,52.51,162.83,52.51"/>
		<path class="st2" d="M162.83,56.23c0.25,0,0.46-0.21,0.46-0.48c0-0.26-0.2-0.48-0.46-0.48c-0.25,0-0.46,0.21-0.46,0.48
			C162.38,56.01,162.58,56.23,162.83,56.23"/>
		<path class="st2" d="M162.83,60.14c0.17,0,0.31-0.14,0.31-0.31s-0.14-0.31-0.31-0.31c-0.17,0-0.31,0.14-0.31,0.31
			S162.66,60.14,162.83,60.14"/>
		<path class="st2" d="M162.83,65.3c0.76,0,1.38-0.62,1.38-1.38s-0.62-1.38-1.38-1.38c-0.76,0-1.38,0.62-1.38,1.38
			S162.07,65.3,162.83,65.3"/>
		<path class="st2" d="M162.83,70.25c1.25,0,2.26-1.01,2.26-2.26c0-1.25-1.01-2.26-2.26-2.26c-1.25,0-2.26,1.01-2.26,2.26
			C160.58,69.24,161.59,70.25,162.83,70.25"/>
		<path class="st2" d="M162.83,73.58c0.82,0,1.49-0.67,1.49-1.51s-0.66-1.51-1.49-1.51c-0.82,0-1.49,0.67-1.49,1.51
			S162.01,73.58,162.83,73.58"/>
		<path class="st2" d="M162.83,76.99c0.46,0,0.83-0.37,0.83-0.83s-0.37-0.83-0.83-0.83c-0.46,0-0.83,0.37-0.83,0.83
			S162.37,76.99,162.83,76.99"/>
		<path class="st2" d="M162.83,81.17c0.52,0,0.93-0.42,0.93-0.93s-0.42-0.93-0.93-0.93c-0.52,0-0.94,0.42-0.94,0.93
			S162.32,81.17,162.83,81.17"/>
		<path class="st2" d="M162.83,84.74c0.22,0,0.4-0.19,0.4-0.42c0-0.23-0.18-0.42-0.4-0.42c-0.22,0-0.4,0.19-0.4,0.42
			C162.43,84.55,162.61,84.74,162.83,84.74"/>
		<path class="st2" d="M166.92,23.4c0.17,0,0.31-0.14,0.31-0.31c0-0.17-0.14-0.31-0.31-0.31c-0.17,0-0.31,0.14-0.31,0.31
			C166.61,23.26,166.75,23.4,166.92,23.4"/>
		<path class="st2" d="M166.92,28.31c0.62,0,1.13-0.51,1.13-1.13c0-0.62-0.51-1.13-1.13-1.13c-0.62,0-1.13,0.51-1.13,1.13
			C165.78,27.8,166.29,28.31,166.92,28.31"/>
		<path class="st3" d="M166.92,33.01c0.97,0,1.75-0.78,1.75-1.75c0-0.97-0.78-1.75-1.75-1.75c-0.97,0-1.75,0.78-1.75,1.75
			C165.16,32.22,165.95,33.01,166.92,33.01"/>
		<path class="st2" d="M166.92,41.76c1.29,0,2.34-1.05,2.34-2.34s-1.05-2.34-2.34-2.34c-1.29,0-2.34,1.05-2.34,2.34
			S165.62,41.76,166.92,41.76"/>
		<path class="st2" d="M166.92,45.98c1.37,0,2.48-1.11,2.48-2.48c0-1.37-1.11-2.48-2.48-2.48s-2.48,1.11-2.48,2.48
			C164.44,44.87,165.55,45.98,166.92,45.98"/>
		<path class="st2" d="M166.92,49.93c1.29,0,2.34-1.05,2.34-2.34s-1.05-2.34-2.34-2.34c-1.29,0-2.34,1.05-2.34,2.34
			S165.62,49.93,166.92,49.93"/>
		<path class="st2" d="M166.92,53.75c1.15,0,2.09-0.93,2.09-2.09s-0.93-2.09-2.09-2.09c-1.15,0-2.09,0.93-2.09,2.09
			S165.76,53.75,166.92,53.75"/>
		<path class="st2" d="M166.92,57.67c1.06,0,1.93-0.86,1.93-1.93s-0.86-1.93-1.93-1.93c-1.06,0-1.93,0.86-1.93,1.93
			S165.85,57.67,166.92,57.67"/>
		<path class="st2" d="M166.92,61.63c1.01,0,1.82-0.81,1.82-1.8c0-1-0.82-1.8-1.82-1.8c-1.01,0-1.82,0.81-1.82,1.8
			C165.09,60.83,165.91,61.63,166.92,61.63"/>
		<path class="st2" d="M166.92,65.96c1.13,0,2.05-0.92,2.05-2.05c0-1.13-0.92-2.05-2.05-2.05s-2.05,0.92-2.05,2.05
			C164.87,65.04,165.78,65.96,166.92,65.96"/>
		<path class="st2" d="M166.92,70.21c1.23,0,2.22-0.99,2.22-2.22c0-1.23-0.99-2.22-2.22-2.22s-2.22,0.99-2.22,2.22
			C164.69,69.22,165.69,70.21,166.92,70.21"/>
		<path class="st2" d="M166.92,73.96c1.04,0,1.87-0.84,1.87-1.89c0-1.04-0.84-1.89-1.87-1.89s-1.87,0.84-1.87,1.89
			C165.04,73.12,165.88,73.96,166.92,73.96"/>
		<path class="st2" d="M166.92,77.74c0.89,0,1.61-0.71,1.61-1.59s-0.72-1.59-1.61-1.59c-0.89,0-1.61,0.71-1.61,1.59
			S166.03,77.74,166.92,77.74"/>
		<path class="st2" d="M166.92,81.17c0.52,0,0.93-0.42,0.93-0.93s-0.42-0.93-0.93-0.93c-0.52,0-0.93,0.42-0.93,0.93
			S166.4,81.17,166.92,81.17"/>
		<path class="st2" d="M171,19.32c0.17,0,0.31-0.14,0.31-0.31c0-0.17-0.14-0.31-0.31-0.31c-0.17,0-0.31,0.14-0.31,0.31
			C170.69,19.18,170.83,19.32,171,19.32"/>
		<path class="st2" d="M171,24.55c0.81,0,1.46-0.65,1.46-1.46s-0.65-1.46-1.46-1.46c-0.8,0-1.46,0.65-1.46,1.46
			S170.19,24.55,171,24.55"/>
		<path class="st2" d="M171,29.35c1.2,0,2.18-0.98,2.18-2.18c0-1.2-0.98-2.18-2.18-2.18c-1.2,0-2.18,0.97-2.18,2.18
			C168.82,28.38,169.79,29.35,171,29.35"/>
		<path class="st2" d="M171,33.29c1.12,0,2.04-0.91,2.04-2.04c0-1.12-0.91-2.04-2.04-2.04s-2.04,0.91-2.04,2.04
			C168.96,32.38,169.87,33.29,171,33.29"/>
		<path class="st3" d="M171,37.18c1.02,0,1.84-0.82,1.84-1.84s-0.82-1.84-1.84-1.84c-1.02,0-1.84,0.82-1.84,1.84
			S169.98,37.18,171,37.18"/>
		<path class="st3" d="M171,41.13c0.95,0,1.71-0.77,1.71-1.71c0-0.94-0.76-1.71-1.71-1.71c-0.94,0-1.71,0.77-1.71,1.71
			C169.29,40.36,170.05,41.13,171,41.13"/>
		<path class="st2" d="M171,44.87c0.76,0,1.38-0.61,1.38-1.36c0-0.75-0.62-1.36-1.38-1.36c-0.76,0-1.38,0.61-1.38,1.36
			C169.62,44.26,170.24,44.87,171,44.87"/>
		<path class="st2" d="M171,48.88c0.71,0,1.29-0.58,1.29-1.29s-0.58-1.29-1.29-1.29s-1.29,0.58-1.29,1.29S170.28,48.88,171,48.88"/>
		<path class="st2" d="M171,53.33c0.91,0,1.65-0.74,1.65-1.66c0-0.92-0.74-1.66-1.65-1.66c-0.91,0-1.65,0.74-1.65,1.66
			C169.35,52.58,170.09,53.33,171,53.33"/>
		<path class="st2" d="M171,57.32c0.86,0,1.56-0.7,1.56-1.57c0-0.87-0.7-1.57-1.56-1.57s-1.56,0.7-1.56,1.57
			C169.44,56.61,170.14,57.32,171,57.32"/>
		<path class="st2" d="M171,61.48c0.91,0,1.65-0.74,1.65-1.65c0-0.91-0.74-1.65-1.65-1.65c-0.91,0-1.65,0.74-1.65,1.65
			C169.35,60.74,170.09,61.48,171,61.48"/>
		<path class="st2" d="M171,66.25c1.29,0,2.34-1.05,2.34-2.34s-1.05-2.34-2.34-2.34c-1.29,0-2.34,1.05-2.34,2.34
			S169.7,66.25,171,66.25"/>
		<path class="st2" d="M171,69.91c1.06,0,1.91-0.86,1.91-1.91c0-1.06-0.86-1.92-1.91-1.92c-1.06,0-1.91,0.86-1.91,1.92
			C169.08,69.05,169.94,69.91,171,69.91"/>
		<path class="st2" d="M171,73.13c0.58,0,1.06-0.47,1.06-1.06s-0.47-1.06-1.06-1.06s-1.06,0.47-1.06,1.06S170.41,73.13,171,73.13"/>
		<path class="st2" d="M171,76.66c0.29,0,0.52-0.23,0.52-0.51c0-0.28-0.23-0.51-0.52-0.51c-0.29,0-0.52,0.23-0.52,0.51
			C170.48,76.44,170.71,76.66,171,76.66"/>
		<path class="st2" d="M175.08,15.23c0.17,0,0.31-0.14,0.31-0.31c0-0.17-0.14-0.31-0.31-0.31c-0.17,0-0.31,0.14-0.31,0.31
			C174.77,15.1,174.91,15.23,175.08,15.23"/>
		<path class="st2" d="M175.08,20.39c0.76,0,1.38-0.62,1.38-1.38c0-0.76-0.62-1.38-1.38-1.38c-0.76,0-1.38,0.62-1.38,1.38
			C173.7,19.77,174.32,20.39,175.08,20.39"/>
		<path class="st2" d="M175.08,25.07c1.09,0,1.98-0.88,1.98-1.98s-0.89-1.97-1.98-1.97c-1.09,0-1.98,0.88-1.98,1.97
			S173.99,25.07,175.08,25.07"/>
		<path class="st2" d="M175.08,28.88c0.94,0,1.71-0.77,1.71-1.71c0-0.94-0.76-1.71-1.71-1.71c-0.95,0-1.71,0.77-1.71,1.71
			C173.37,28.12,174.13,28.88,175.08,28.88"/>
		<path class="st2" d="M175.08,32.17c0.5,0,0.91-0.41,0.91-0.91s-0.41-0.92-0.91-0.92c-0.51,0-0.91,0.41-0.91,0.92
			S174.57,32.17,175.08,32.17"/>
		<path class="st2" d="M175.08,35.73c0.22,0,0.4-0.18,0.4-0.4c0-0.22-0.18-0.4-0.4-0.4c-0.22,0-0.4,0.18-0.4,0.4
			C174.68,35.56,174.86,35.73,175.08,35.73"/>
		<path class="st2" d="M175.08,40.67c0.7,0,1.26-0.56,1.26-1.25s-0.56-1.25-1.26-1.25c-0.7,0-1.26,0.56-1.26,1.25
			S174.38,40.67,175.08,40.67"/>
		<path class="st2" d="M175.08,44.38c0.47,0,0.85-0.39,0.85-0.87c0-0.48-0.38-0.87-0.85-0.87c-0.47,0-0.85,0.39-0.85,0.87
			C174.23,43.98,174.61,44.38,175.08,44.38"/>
		<path class="st2" d="M175.08,52.44c0.42,0,0.76-0.34,0.76-0.77c0-0.43-0.34-0.77-0.76-0.77c-0.42,0-0.76,0.35-0.76,0.77
			C174.32,52.09,174.66,52.44,175.08,52.44"/>
		<path class="st2" d="M175.08,57.03c0.71,0,1.28-0.57,1.28-1.28c0-0.71-0.57-1.28-1.28-1.28c-0.71,0-1.28,0.57-1.28,1.28
			C173.8,56.46,174.37,57.03,175.08,57.03"/>
		<path class="st2" d="M175.08,61.44c0.89,0,1.61-0.72,1.61-1.61c0-0.89-0.72-1.61-1.61-1.61c-0.89,0-1.61,0.72-1.61,1.61
			C173.47,60.72,174.19,61.44,175.08,61.44"/>
		<path class="st2" d="M175.08,66.25c1.29,0,2.34-1.05,2.34-2.34s-1.05-2.34-2.34-2.34c-1.29,0-2.34,1.05-2.34,2.34
			S173.79,66.25,175.08,66.25"/>
		<path class="st2" d="M175.08,69.29c0.71,0,1.29-0.58,1.29-1.29c0-0.72-0.58-1.29-1.29-1.29c-0.72,0-1.29,0.58-1.29,1.29
			C173.79,68.71,174.36,69.29,175.08,69.29"/>
		<path class="st2" d="M179.16,15.86c0.52,0,0.93-0.42,0.93-0.93s-0.42-0.93-0.93-0.93s-0.93,0.42-0.93,0.93
			S178.65,15.86,179.16,15.86"/>
		<path class="st2" d="M179.16,20.66c0.91,0,1.65-0.74,1.65-1.65c0-0.91-0.74-1.65-1.65-1.65s-1.65,0.74-1.65,1.65
			C177.51,19.92,178.25,20.66,179.16,20.66"/>
		<path class="st2" d="M179.16,23.99c0.49,0,0.89-0.4,0.89-0.89s-0.4-0.89-0.89-0.89s-0.89,0.4-0.89,0.89S178.67,23.99,179.16,23.99
			"/>
		<path class="st2" d="M179.16,28.05c0.48,0,0.87-0.39,0.87-0.87c0-0.48-0.39-0.87-0.87-0.87s-0.87,0.39-0.87,0.87
			C178.29,27.66,178.68,28.05,179.16,28.05"/>
		<path class="st2" d="M179.16,32.52c0.7,0,1.26-0.56,1.26-1.26c0-0.7-0.56-1.26-1.26-1.26s-1.26,0.57-1.26,1.26
			C177.9,31.95,178.46,32.52,179.16,32.52"/>
		<path class="st2" d="M179.16,35.64c0.17,0,0.31-0.14,0.31-0.31c0-0.17-0.14-0.31-0.31-0.31s-0.31,0.14-0.31,0.31
			C178.86,35.51,178.99,35.64,179.16,35.64"/>
		<path class="st2" d="M179.16,40.15c0.4,0,0.73-0.33,0.73-0.73c0-0.4-0.33-0.73-0.73-0.73s-0.73,0.33-0.73,0.73
			C178.43,39.82,178.76,40.15,179.16,40.15"/>
		<path class="st2" d="M179.16,44.78c0.7,0,1.26-0.57,1.26-1.27c0-0.7-0.56-1.27-1.26-1.27s-1.26,0.57-1.26,1.27
			C177.9,44.21,178.46,44.78,179.16,44.78"/>
		<path class="st2" d="M179.16,48.13c0.3,0,0.55-0.25,0.55-0.55c0-0.3-0.25-0.55-0.55-0.55s-0.55,0.25-0.55,0.55
			C178.61,47.89,178.86,48.13,179.16,48.13"/>
		<path class="st2" d="M179.16,57.03c0.71,0,1.29-0.57,1.29-1.28c0-0.71-0.58-1.28-1.29-1.28s-1.29,0.57-1.29,1.28
			C177.87,56.46,178.45,57.03,179.16,57.03"/>
		<path class="st2" d="M179.16,62.22c1.32,0,2.39-1.07,2.39-2.39c0-1.32-1.07-2.39-2.39-2.39s-2.39,1.07-2.39,2.39
			C176.78,61.15,177.84,62.22,179.16,62.22"/>
		<path class="st2" d="M179.16,65.74c1.01,0,1.82-0.82,1.82-1.83c0-1.01-0.82-1.82-1.82-1.82s-1.82,0.82-1.82,1.82
			C177.34,64.92,178.15,65.74,179.16,65.74"/>
		<path class="st2" d="M179.16,68.51c0.29,0,0.52-0.23,0.52-0.52c0-0.29-0.23-0.52-0.52-0.52s-0.52,0.23-0.52,0.52
			C178.64,68.28,178.88,68.51,179.16,68.51"/>
		<path class="st2" d="M183.24,11.15c0.17,0,0.31-0.14,0.31-0.31c0-0.17-0.14-0.31-0.31-0.31c-0.17,0-0.31,0.14-0.31,0.31
			C182.94,11.02,183.07,11.15,183.24,11.15"/>
		<path class="st2" d="M183.24,16.06c0.62,0,1.13-0.51,1.13-1.13c0-0.62-0.51-1.13-1.13-1.13c-0.62,0-1.13,0.51-1.13,1.13
			C182.11,15.55,182.62,16.06,183.24,16.06"/>
		<path class="st2" d="M183.24,19.8c0.44,0,0.79-0.35,0.79-0.79c0-0.44-0.35-0.79-0.79-0.79c-0.44,0-0.79,0.36-0.79,0.79
			C182.45,19.45,182.81,19.8,183.24,19.8"/>
		<path class="st2" d="M183.24,32.35c0.6,0,1.09-0.49,1.09-1.09c0-0.6-0.49-1.09-1.09-1.09c-0.6,0-1.09,0.49-1.09,1.09
			C182.15,31.86,182.64,32.35,183.24,32.35"/>
		<path class="st2" d="M183.24,36.35c0.56,0,1.02-0.45,1.02-1.02c0-0.56-0.46-1.02-1.02-1.02c-0.56,0-1.02,0.45-1.02,1.02
			C182.23,35.9,182.68,36.35,183.24,36.35"/>
		<path class="st2" d="M183.24,44.47c0.53,0,0.97-0.43,0.97-0.97c0-0.53-0.43-0.97-0.97-0.97c-0.53,0-0.97,0.43-0.97,0.97
			C182.28,44.04,182.71,44.47,183.24,44.47"/>
		<path class="st2" d="M183.24,48.82c0.68,0,1.23-0.55,1.23-1.23s-0.55-1.23-1.23-1.23c-0.68,0-1.23,0.55-1.23,1.23
			S182.56,48.82,183.24,48.82"/>
		<path class="st2" d="M183.24,52.62c0.53,0,0.96-0.43,0.96-0.96c0-0.53-0.43-0.96-0.96-0.96c-0.53,0-0.96,0.43-0.96,0.96
			C182.29,52.19,182.71,52.62,183.24,52.62"/>
		<path class="st2" d="M183.24,57.74c1.1,0,2-0.89,2-2s-0.89-2-2-2c-1.1,0-2,0.89-2,2S182.14,57.74,183.24,57.74"/>
		<path class="st2" d="M183.24,61.86c1.12,0,2.04-0.91,2.04-2.03c0-1.12-0.91-2.03-2.04-2.03s-2.04,0.91-2.04,2.03
			C181.21,60.95,182.12,61.86,183.24,61.86"/>
		<path class="st2" d="M183.24,64.97c0.58,0,1.06-0.47,1.06-1.06s-0.47-1.06-1.06-1.06c-0.58,0-1.06,0.47-1.06,1.06
			S182.66,64.97,183.24,64.97"/>
		<path class="st2" d="M187.32,11.15c0.17,0,0.31-0.14,0.31-0.31c0-0.17-0.14-0.31-0.31-0.31c-0.17,0-0.31,0.14-0.31,0.31
			C187.02,11.02,187.16,11.15,187.32,11.15"/>
		<path class="st2" d="M187.32,15.39c0.25,0,0.46-0.2,0.46-0.46c0-0.25-0.2-0.46-0.46-0.46c-0.25,0-0.46,0.2-0.46,0.46
			C186.87,15.18,187.07,15.39,187.32,15.39"/>
		<path class="st2" d="M187.32,31.56c0.17,0,0.31-0.14,0.31-0.31c0-0.17-0.14-0.31-0.31-0.31c-0.17,0-0.31,0.14-0.31,0.31
			C187.02,31.43,187.16,31.56,187.32,31.56"/>
		<path class="st2" d="M187.32,36.62c0.7,0,1.26-0.57,1.26-1.28s-0.56-1.28-1.26-1.28c-0.7,0-1.26,0.57-1.26,1.28
			S186.63,36.62,187.32,36.62"/>
		<path class="st2" d="M187.32,40.23c0.44,0,0.79-0.36,0.79-0.81c0-0.45-0.35-0.81-0.79-0.81s-0.79,0.36-0.79,0.81
			C186.53,39.87,186.89,40.23,187.32,40.23"/>
		<path class="st2" d="M187.32,43.81c0.17,0,0.31-0.14,0.31-0.31c0-0.17-0.14-0.31-0.31-0.31c-0.17,0-0.31,0.14-0.31,0.31
			C187.02,43.67,187.16,43.81,187.32,43.81"/>
		<path class="st2" d="M187.32,49.14c0.86,0,1.56-0.7,1.56-1.56s-0.7-1.56-1.56-1.56s-1.56,0.7-1.56,1.56S186.46,49.14,187.32,49.14
			"/>
		<path class="st2" d="M187.32,53.65c1.09,0,1.98-0.89,1.98-1.99s-0.88-1.99-1.98-1.99s-1.98,0.89-1.98,1.99
			S186.23,53.65,187.32,53.65"/>
		<path class="st2" d="M187.32,57.63c1.04,0,1.89-0.84,1.89-1.89c0-1.04-0.84-1.89-1.89-1.89c-1.04,0-1.89,0.84-1.89,1.89
			C185.44,56.79,186.28,57.63,187.32,57.63"/>
		<path class="st2" d="M187.32,60.84c0.56,0,1.01-0.45,1.01-1.01s-0.45-1.01-1.01-1.01c-0.56,0-1.01,0.45-1.01,1.01
			S186.77,60.84,187.32,60.84"/>
		<path class="st2" d="M191.41,36.13c0.44,0,0.79-0.35,0.79-0.79c0-0.44-0.36-0.79-0.79-0.79s-0.79,0.36-0.79,0.79
			C190.61,35.78,190.97,36.13,191.41,36.13"/>
		<path class="st2" d="M191.41,40.8c0.76,0,1.38-0.62,1.38-1.38s-0.62-1.38-1.38-1.38c-0.76,0-1.38,0.62-1.38,1.38
			S190.64,40.8,191.41,40.8"/>
		<path class="st2" d="M191.41,44.78c0.71,0,1.29-0.57,1.29-1.28s-0.58-1.28-1.29-1.28s-1.29,0.57-1.29,1.28
			S190.69,44.78,191.41,44.78"/>
		<path class="st2" d="M191.41,49.14c0.86,0,1.56-0.7,1.56-1.56s-0.7-1.56-1.56-1.56s-1.56,0.7-1.56,1.56S190.55,49.14,191.41,49.14
			"/>
		<path class="st2" d="M191.41,52.95c0.71,0,1.28-0.57,1.28-1.28c0-0.71-0.57-1.28-1.28-1.28s-1.28,0.57-1.28,1.28
			C190.12,52.37,190.7,52.95,191.41,52.95"/>
		<path class="st2" d="M191.41,56.29c0.3,0,0.54-0.24,0.54-0.54c0-0.3-0.24-0.54-0.54-0.54c-0.3,0-0.54,0.24-0.54,0.54
			C190.87,56.05,191.11,56.29,191.41,56.29"/>
		<path class="st2" d="M195.49,35.64c0.17,0,0.31-0.14,0.31-0.31c0-0.17-0.14-0.31-0.31-0.31c-0.17,0-0.31,0.14-0.31,0.31
			C195.18,35.51,195.32,35.64,195.49,35.64"/>
		<path class="st2" d="M195.49,40.15c0.4,0,0.73-0.33,0.73-0.73c0-0.4-0.33-0.73-0.73-0.73c-0.4,0-0.73,0.33-0.73,0.73
			C194.76,39.82,195.08,40.15,195.49,40.15"/>
		<path class="st2" d="M195.49,43.94c0.24,0,0.44-0.2,0.44-0.44c0-0.24-0.2-0.44-0.44-0.44c-0.24,0-0.44,0.2-0.44,0.44
			C195.05,43.74,195.25,43.94,195.49,43.94"/>
		<path class="st2" d="M195.49,47.89c0.17,0,0.31-0.14,0.31-0.31c0-0.17-0.14-0.31-0.31-0.31c-0.17,0-0.31,0.14-0.31,0.31
			C195.18,47.75,195.32,47.89,195.49,47.89"/>
		<path class="st2" d="M199.57,43.81c0.17,0,0.31-0.14,0.31-0.31c0-0.17-0.14-0.31-0.31-0.31c-0.17,0-0.31,0.14-0.31,0.31
			C199.26,43.67,199.4,43.81,199.57,43.81"/>
		<path class="st3" d="M166.92,37.43c1.15,0,2.09-0.94,2.09-2.09c0-1.15-0.94-2.09-2.09-2.09c-1.15,0-2.09,0.94-2.09,2.09
			C164.83,36.49,165.76,37.43,166.92,37.43"/>
	</g>
</g>
<g id="MPI_x5F_DE_x5F_Master_x5F_einzeilig">
	<g id="MPI_x5F_DE_x5F_Editierbare_x5F_Unterzeile_x5F_einzeilig">
		<g>
			<path class="st0" d="M113.51,115.26h-4.21v4.22h-0.76v-9.02h5.59v0.64h-4.83v3.51h4.21V115.26z"/>
			<path class="st0" d="M122.53,110.46v6.16c0,0.61-0.14,1.14-0.4,1.59s-0.64,0.8-1.12,1.04c-0.48,0.24-1.03,0.36-1.66,0.36
				c-0.95,0-1.71-0.26-2.28-0.78s-0.87-1.24-0.89-2.15v-6.21h0.76v6.1c0,0.76,0.22,1.35,0.65,1.77s1.02,0.63,1.77,0.63
				c0.74,0,1.33-0.21,1.76-0.63c0.43-0.42,0.65-1.01,0.65-1.76v-6.11H122.53z M117.55,108.88c0-0.14,0.05-0.26,0.14-0.36
				s0.21-0.15,0.37-0.15c0.16,0,0.28,0.05,0.38,0.15s0.14,0.22,0.14,0.36c0,0.14-0.05,0.25-0.14,0.35s-0.22,0.14-0.38,0.14
				c-0.16,0-0.28-0.05-0.37-0.14S117.55,109.01,117.55,108.88z M120.26,108.88c0-0.14,0.05-0.26,0.14-0.36
				c0.09-0.1,0.21-0.15,0.37-0.15c0.16,0,0.28,0.05,0.37,0.15c0.09,0.1,0.14,0.22,0.14,0.36c0,0.14-0.05,0.25-0.14,0.35
				c-0.09,0.1-0.22,0.14-0.37,0.14c-0.16,0-0.28-0.05-0.37-0.14C120.31,109.13,120.26,109.02,120.26,108.88z"/>
			<path class="st0" d="M128.66,115.72h-2.62v3.76h-0.77v-9.02h2.93c0.96,0,1.71,0.23,2.25,0.7c0.54,0.47,0.81,1.12,0.81,1.96
				c0,0.58-0.17,1.09-0.51,1.53s-0.79,0.75-1.36,0.92l2.26,3.84v0.08h-0.81L128.66,115.72z M126.04,115.07h2.34
				c0.64,0,1.16-0.18,1.54-0.55c0.39-0.36,0.58-0.83,0.58-1.41c0-0.64-0.2-1.13-0.61-1.48c-0.41-0.35-0.97-0.53-1.7-0.53h-2.15
				V115.07z"/>
			<path class="st0" d="M138.71,110.46l3.33,7.96l3.34-7.96h1.02v9.02h-0.76v-3.93l0.06-4.03l-3.36,7.96h-0.59l-3.35-7.92l0.06,3.97
				v3.95h-0.76v-9.02H138.71z"/>
			<path class="st0" d="M155.98,115.46c0,0.83-0.14,1.56-0.43,2.19s-0.7,1.11-1.23,1.45c-0.53,0.34-1.15,0.51-1.85,0.51
				c-1.05,0-1.9-0.38-2.55-1.13s-0.97-1.77-0.97-3.05v-0.93c0-0.82,0.15-1.55,0.44-2.18c0.29-0.63,0.7-1.12,1.24-1.46
				c0.53-0.34,1.15-0.51,1.84-0.51c0.69,0,1.31,0.17,1.84,0.5c0.53,0.33,0.94,0.81,1.23,1.42c0.29,0.61,0.44,1.32,0.45,2.12V115.46z
				 M155.22,114.48c0-1.09-0.25-1.94-0.74-2.55c-0.49-0.62-1.17-0.92-2.02-0.92c-0.84,0-1.51,0.31-2,0.93
				c-0.5,0.62-0.75,1.48-0.75,2.59v0.94c0,1.07,0.25,1.92,0.74,2.54s1.17,0.94,2.02,0.94c0.86,0,1.54-0.31,2.02-0.93
				c0.48-0.62,0.72-1.48,0.72-2.58V114.48z"/>
			<path class="st0" d="M159.3,118.83h4.46v0.64h-5.22v-9.02h0.77V118.83z"/>
			<path class="st0" d="M170.84,115.15h-4.22v3.68h4.85v0.64h-5.61v-9.02h5.58v0.64h-4.82v3.41h4.22V115.15z"/>
			<path class="st0" d="M175.74,115l-1.27,1.25v3.23h-0.76v-9.02h0.76v4.86l4.62-4.86h0.96l-3.78,4.01l4.07,5.01h-0.93L175.74,115z"
				/>
			<path class="st0" d="M188.56,110.46v6.16c0,0.61-0.14,1.14-0.4,1.59s-0.64,0.8-1.12,1.04c-0.48,0.24-1.03,0.36-1.66,0.36
				c-0.95,0-1.71-0.26-2.28-0.78s-0.87-1.24-0.89-2.15v-6.21h0.76v6.1c0,0.76,0.22,1.35,0.65,1.77s1.02,0.63,1.77,0.63
				c0.74,0,1.33-0.21,1.76-0.63c0.43-0.42,0.65-1.01,0.65-1.76v-6.11H188.56z"/>
			<path class="st0" d="M192.09,118.83h4.46v0.64h-5.22v-9.02h0.77V118.83z"/>
			<path class="st0" d="M203.63,116.94h-4.1l-0.93,2.53h-0.8l3.41-9.02h0.73l3.41,9.02h-0.79L203.63,116.94z M199.77,116.3h3.62
				l-1.81-4.91L199.77,116.3z"/>
			<path class="st0" d="M210.69,115.72h-2.62v3.76h-0.77v-9.02h2.93c0.96,0,1.71,0.23,2.25,0.7c0.54,0.47,0.81,1.12,0.81,1.96
				c0,0.58-0.17,1.09-0.51,1.53s-0.79,0.75-1.36,0.92l2.26,3.84v0.08h-0.81L210.69,115.72z M208.07,115.07h2.34
				c0.64,0,1.16-0.18,1.54-0.55c0.39-0.36,0.58-0.83,0.58-1.41c0-0.64-0.2-1.13-0.61-1.48c-0.41-0.35-0.97-0.53-1.7-0.53h-2.15
				V115.07z"/>
			<path class="st0" d="M220.99,115.15h-4.22v3.68h4.85v0.64h-5.61v-9.02h5.58v0.64h-4.82v3.41h4.22V115.15z"/>
			<path class="st0" d="M234.09,118.41c-0.26,0.38-0.68,0.67-1.24,0.88c-0.56,0.21-1.2,0.32-1.89,0.32c-0.71,0-1.33-0.17-1.88-0.51
				c-0.55-0.34-0.98-0.82-1.28-1.44c-0.3-0.62-0.46-1.33-0.46-2.13v-1.14c0-1.25,0.32-2.24,0.95-2.96c0.63-0.72,1.48-1.09,2.55-1.09
				c0.93,0,1.68,0.24,2.24,0.71c0.57,0.47,0.9,1.12,1.01,1.96h-0.76c-0.11-0.66-0.38-1.17-0.81-1.51s-0.99-0.51-1.68-0.51
				c-0.84,0-1.51,0.3-2,0.9c-0.49,0.6-0.74,1.45-0.74,2.54v1.07c0,0.69,0.12,1.29,0.35,1.82c0.23,0.53,0.57,0.94,1,1.23
				c0.44,0.29,0.94,0.43,1.5,0.43c0.66,0,1.22-0.1,1.69-0.31c0.31-0.14,0.53-0.3,0.68-0.48v-2.33h-2.42v-0.64h3.18V118.41z"/>
			<path class="st0" d="M241.87,115.15h-4.22v3.68h4.85v0.64h-5.61v-9.02h5.58v0.64h-4.82v3.41h4.22V115.15z"/>
			<path class="st0" d="M251.46,119.48h-0.76l-5.19-7.72v7.72h-0.77v-9.02h0.77l5.19,7.73v-7.73h0.76V119.48z"/>
			<path class="st0" d="M259.37,115.15h-4.22v3.68H260v0.64h-5.61v-9.02h5.58v0.64h-4.82v3.41h4.22V115.15z"/>
			<path class="st0" d="M268.49,111.1h-3.09v8.38h-0.76v-8.38h-3.09v-0.64h6.94V111.1z"/>
			<path class="st0" d="M271.51,119.48h-0.76v-9.02h0.76V119.48z"/>
			<path class="st0" d="M276.62,115l-1.27,1.25v3.23h-0.76v-9.02h0.76v4.86l4.62-4.86h0.96l-3.78,4.01l4.07,5.01h-0.93L276.62,115z"
				/>
		</g>
	</g>
	<g id="MPI_x5F_DE_x5F_Schriftzug_x5F_einzeilig">
		<g>
			<path class="st0" d="M124.1,101.52h-4.36v-1.9h4.36V101.52z"/>
		</g>
		<polygon class="st0" points="88.18,103.41 88.13,103.41 85.1,94.64 81.97,94.64 81.97,106.54 84.36,106.54 84.36,98.4 
			84.41,98.39 87.35,106.54 88.97,106.54 91.92,98.41 91.97,98.41 91.97,106.54 94.35,106.54 94.35,94.64 91.24,94.64 		"/>
		<path class="st0" d="M103.54,94.64h-2.44l-4.02,11.91h2.49l0.8-2.57h3.86l0.81,2.57h2.49L103.54,94.64z M100.97,102.1l1.32-4.2
			h0.05l1.32,4.2H100.97z"/>
		<polygon class="st0" points="119.28,106.54 115.55,100.54 119.08,94.64 116.3,94.64 114.07,98.86 111.87,94.64 109.1,94.64 
			112.64,100.54 109.01,106.54 111.8,106.54 114.1,102.25 116.4,106.54 		"/>
		<path class="st0" d="M134.72,95.68c-0.79-0.7-1.86-1.05-3.23-1.05h-4.56v11.91h2.39v-4.32h2.17c1.37,0,2.45-0.35,3.23-1.04
			c0.79-0.69,1.18-1.61,1.18-2.75C135.9,97.3,135.5,96.38,134.72,95.68z M133,99.84c-0.34,0.36-0.85,0.54-1.51,0.54h-2.17v-3.91
			h2.17c0.67,0,1.18,0.19,1.52,0.56c0.34,0.37,0.51,0.85,0.51,1.42C133.52,99.02,133.35,99.48,133,99.84z"/>
		<polygon class="st0" points="145.2,104.71 140.83,104.71 140.83,94.64 138.44,94.64 138.44,106.54 145.2,106.54 		"/>
		<path class="st0" d="M150.72,94.64l-4.02,11.91h2.49l0.8-2.57h3.86l0.81,2.57h2.49l-4-11.91H150.72z M150.59,102.1l1.32-4.2h0.05
			l1.32,4.2H150.59z"/>
		<polygon class="st0" points="162.04,98.52 162.09,98.51 166.89,106.54 169.28,106.54 169.28,94.64 166.89,94.64 166.89,102.65 
			166.84,102.66 162.04,94.64 159.65,94.64 159.65,106.54 162.04,106.54 		"/>
		<path class="st0" d="M180.6,95.53c-0.82-0.71-1.95-1.06-3.4-1.06c-1.39,0-2.51,0.46-3.37,1.39c-0.86,0.92-1.28,2.11-1.28,3.56
			v2.36c0,1.46,0.44,2.64,1.32,3.56c0.88,0.92,2.03,1.38,3.46,1.38c1.4,0,2.5-0.36,3.3-1.08c0.8-0.72,1.18-1.71,1.16-2.99
			l-0.02-0.05h-2.31c0,0.77-0.18,1.35-0.53,1.72c-0.35,0.37-0.88,0.56-1.6,0.56c-0.75,0-1.34-0.29-1.76-0.87
			c-0.42-0.58-0.63-1.32-0.63-2.24V99.4c0-0.91,0.2-1.65,0.6-2.23c0.4-0.58,0.96-0.86,1.67-0.86c0.77,0,1.34,0.19,1.71,0.56
			c0.37,0.37,0.55,0.94,0.55,1.71h2.32l0.02-0.05C181.81,97.23,181.41,96.24,180.6,95.53z"/>
		<polygon class="st0" points="194.27,94.64 191.32,94.64 188.05,99.5 187.38,99.5 187.38,94.64 184.99,94.64 184.99,106.54 
			187.38,106.54 187.38,101.57 188.26,101.57 191.55,106.54 194.59,106.54 190.15,100.17 		"/>
		<path class="st0" d="M199.14,101.52h-4.36v-1.9h4.36V101.52z"/>
		<path class="st0" d="M204.53,106.57h-2.45V94.69h2.45V106.57z"/>
		<path class="st0" d="M217.71,106.57h-2.45l-4.76-7.82v7.82h-2.45V94.69h2.45l4.77,7.83v-7.83h2.44V106.57z"/>
		<path class="st0" d="M227.18,103.45c0-0.46-0.16-0.82-0.49-1.06c-0.33-0.25-0.91-0.51-1.76-0.78c-0.85-0.27-1.52-0.54-2.01-0.81
			c-1.35-0.73-2.02-1.71-2.02-2.95c0-0.64,0.18-1.21,0.54-1.72c0.36-0.5,0.88-0.9,1.56-1.18c0.68-0.28,1.44-0.42,2.28-0.42
			c0.85,0,1.6,0.15,2.27,0.46c0.66,0.31,1.18,0.74,1.55,1.3c0.37,0.56,0.55,1.2,0.55,1.91h-2.45c0-0.54-0.17-0.97-0.51-1.27
			c-0.34-0.3-0.82-0.45-1.44-0.45c-0.6,0-1.06,0.13-1.39,0.38c-0.33,0.25-0.5,0.59-0.5,1c0,0.39,0.19,0.71,0.58,0.97
			c0.39,0.26,0.96,0.5,1.72,0.73c1.39,0.42,2.41,0.94,3.04,1.56c0.64,0.62,0.95,1.39,0.95,2.32c0,1.03-0.39,1.83-1.17,2.42
			c-0.78,0.58-1.83,0.88-3.14,0.88c-0.91,0-1.75-0.17-2.5-0.5c-0.75-0.33-1.32-0.79-1.72-1.37c-0.39-0.58-0.59-1.26-0.59-2.02h2.46
			c0,1.31,0.78,1.97,2.35,1.97c0.58,0,1.04-0.12,1.36-0.35C227.01,104.2,227.18,103.87,227.18,103.45z"/>
		<path class="st0" d="M240.9,96.67h-3.64v9.9h-2.45v-9.9h-3.59v-1.98h9.67V96.67z"/>
		<path class="st0" d="M245.73,106.57h-2.45V94.69h2.45V106.57z"/>
		<path class="st0" d="M257.54,96.67h-3.64v9.9h-2.45v-9.9h-3.59v-1.98h9.67V96.67z"/>
		<path class="st0" d="M268.76,94.69v7.82c0,1.3-0.41,2.33-1.22,3.08c-0.81,0.76-1.92,1.13-3.33,1.13c-1.39,0-2.49-0.37-3.3-1.1
			c-0.82-0.73-1.23-1.74-1.25-3.03v-7.91h2.45v7.84c0,0.78,0.19,1.34,0.56,1.7c0.37,0.36,0.89,0.53,1.55,0.53
			c1.38,0,2.08-0.72,2.1-2.17v-7.91H268.76z"/>
		<path class="st0" d="M280.54,96.67h-3.64v9.9h-2.45v-9.9h-3.59v-1.98h9.67V96.67z"/>
	</g>
</g>
</svg>
