<?xml version="1.0" encoding="utf-8"?>
<!-- Generator: Adobe Illustrator 25.1.0, SVG Export Plug-In . SVG Version: 6.00 Build 0)  -->
<svg version="1.1" xmlns="http://www.w3.org/2000/svg" xmlns:xlink="http://www.w3.org/1999/xlink" x="0px" y="0px"
	 viewBox="0 0 425.2 94.96" style="enable-background:new 0 0 425.2 94.96;" xml:space="preserve">
<style type="text/css">
	.st0{fill:#006C66;}
	.st1{fill:none;stroke:#006C66;stroke-width:0.35;stroke-miterlimit:10;}
	.st2{clip-path:url(#SVGID_2_);fill:#006C66;}
	.st3{clip-path:url(#SVGID_2_);fill:#EF7C00;}
</style>
<g id="MPG_x5F_Minerva">
	<path class="st0" d="M368.41,16.18c-17.35,0-31.46,14.11-31.46,31.46c0,17.35,14.11,31.46,31.46,31.46
		c17.35,0,31.46-14.11,31.46-31.46C399.88,30.29,385.76,16.18,368.41,16.18z M368.41,78.22c-16.87,0-30.58-13.72-30.58-30.59
		c0-16.86,13.72-30.58,30.58-30.58c16.86,0,30.58,13.72,30.58,30.58C399,64.5,385.28,78.22,368.41,78.22z"/>
	<path class="st0" d="M386.87,45.23c-0.44-0.91-0.14-1.51-0.27-2.17c-0.1-0.49-0.83-2.11-1.29-3.23c-0.22-0.53,1.13-0.4,0.13-2.3
		c-0.03-0.06,1.38-0.58-0.03-1.65c-0.79-0.6-1.35-1.34-1.78-2c-0.06-0.09-0.12-0.27,0.01-0.39c0.8-0.71,0.82-1.73-0.05-2.25
		c-0.63-0.38-1.34,0.01-2,0.43c-0.22,0.14-0.33,0.23-0.55,0.14c-0.12-0.05-0.34-0.2-0.54-0.34c0.82-0.79,0.97-1.57,0.91-1.69
		c-0.04-0.09-1.38-0.39-3.04,0.3c-0.04-0.02-0.08-0.04-0.12-0.06c0.68-1.18,0.3-2.01,0.25-2.07c0,0,0,0,0,0
		c1.24-1.73,2.48-2.89,3.69-4c0,0,0.03-0.03,0.03-0.03c0.08-0.08,0.11-0.17-0.04-0.26c-0.13-0.08-0.16-0.1-0.32-0.18
		c-4.08-2.27-8.74-3.47-13.44-3.47c-15.25,0-27.65,12.41-27.65,27.65c0,8.83,4.48,17.36,11.81,22.65c0.49,0.35,0.83,0.49,0.83,0.49
		c0.12,0.04,0.25,0.04,0.32-0.06l0.11-0.14c0.07-0.09,0.1-0.18,0.1-0.25c0-0.2-0.29-0.38-0.63-0.89c-0.99-1.47-1.43-3.14-1.43-4.54
		c0-1.53,0.47-2.92,1.36-4.08c1.1,1.15,3.51,3.26,3.46,5.19c-0.06,2.16-2.08,2.05-1.64,3.67c0.27,1.02,1.03,0.6,1.17,1.37
		c0.23,1.34,2.02,2.19,2.81,2.07c0.19-0.03,0.35,0.13,0.73,0.51c0.53,0.54,1.85,0.47,2.43,0.36c0.55-0.1,1.25,0.41,2.41,0.28
		c1.45-0.16,1.82-0.27,2.44-0.28c1.05-0.02,6.75-0.1,10.81,0.54c0.7,0.11,0.92-0.21,0.61-0.75c-1.47-2.56-1.67-4.73-0.83-7.47
		c1.5,0.1,3.65,0.51,6.49-1.2c1.01-0.6,1.57-1.89,1.52-2.85c-0.03-0.62-0.3-1.41-0.14-2.02c0.22-0.82,0.38-0.8,0.61-0.96
		c1.08-0.76,0.3-1.37,0.13-1.43c0.33-0.13,0.69-0.84,0.31-1.37c-0.19-0.21-0.78-1.86-0.1-2.21c0.73-0.37,1.57-0.53,2.42-0.9
		c0.58-0.24,1.04-0.92,0.71-1.82C389.16,50.45,386.94,45.37,386.87,45.23z M356.34,69.85c-0.21,0.04-0.89,0.07-0.74-0.82
		c0.09-0.55,0.69-0.78,1-0.47C356.53,68.99,356.39,69.41,356.34,69.85z M382.41,32.11c0.36-0.23,0.74-0.32,0.97-0.1
		c0.79,0.78-0.85,1.21-0.51,1.81c0.56,0.98,1.45,1.92,2.24,2.52c0.37,0.28,0.42,0.92-0.99,1.22c-1.42,0.29-7.08,1.79-10.07,4.95
		c-3.74,3.96-6.12,9.09-6.44,8.39c-0.33-0.71-1.08-0.83-0.96-1.03C372.02,40.62,380.43,33.35,382.41,32.11z M384.87,38.61
		c-0.31,0.88-2.75,1.67-2.63,1.05c0.05-0.28,0.01-0.65,0.19-0.68c0.27-0.05,1.04-0.32,2.24-0.62
		C384.79,38.32,384.95,38.39,384.87,38.61z M378.69,40.21c-0.06-0.36,2.56-1.24,2.65-0.98c0.17,0.48-0.54,1.77-1.42,2.1
		c-1,0.37-1.41,0.26-1.37,0.12C378.62,41.18,378.75,40.54,378.69,40.21z M372.61,53.88c-1.21,0.74-1.86-0.67-2.03-0.92
		c-0.07-0.11-0.27-0.42-0.16-0.95c0.08-0.42,0.15-0.99-0.12-2.79c-0.12-0.79,1.52-2.76,1.89-3.1c0.38-0.36,0.94,0.18,0.98,0.76
		c0.07,1.1-0.55,1.68-1.18,2.15c-0.78,0.58-0.92,1.33-0.78,1.53c0.06,0.08,0.41,0.08,0.56-0.25c0.47-0.99,1.8-1.49,2.01-2.02
		c0.33-0.81,0.09-1.34,0.06-1.68c-0.03-0.3,0.26-0.37,0.48-0.34c0.28,0.04,0.41,0.43,0.55,0.8c0.86,2.25-1.31,3.61-1.66,4.14
		C373.05,51.47,373.54,53.3,372.61,53.88z M374.43,45.16c-0.65,0.44-1.58-0.16-1.39-0.42c1.2-1.71,2.8-2.9,3.44-3.3
		c1.03-0.64,1.14-0.68,1.19-0.32c0.03,0.22,0.04,1.34-0.79,2.25c-0.69,0.75-1.38,0.69-1.73,0.77
		C374.91,44.18,374.92,44.82,374.43,45.16z M368.65,52.83c-0.3-0.07-0.41-0.64-0.35-0.87c0.13-0.51,0.92-1.56,1.2-1.93
		c0.07-0.09,0.21-0.01,0.23,0.1C369.9,51.35,369.73,53.07,368.65,52.83z M378.29,30.62c1.08-0.49,2.13-0.5,2.24-0.48
		c0.25,0.03-0.55,1.44-1.96,2.05c-1.46,0.63-2.55,0.74-2.67,0.68C375.72,32.77,377.14,31.14,378.29,30.62z M353.34,54.07
		c-0.43-0.5-0.83-0.77-0.88-0.74c-0.12,0.08-0.82,1.28-1.06,2.68c-1.36-2.61-2.12-5.24-2.24-8.37
		c-0.42-10.61,8.47-19.15,19.31-19.11c2.47,0.01,4.51,0.47,6.73,1.37c-0.5,0.62-0.86,1.37-1.1,1.99c-0.01-0.58-0.16-1.02-0.12-1.38
		c0.03-0.22-1.54,0.27-2.92,2.47c-0.32,0.51-0.52,1.08-0.65,1.6c-0.03-0.83-0.22-1.47-0.28-1.46c-0.14,0.04-1.73,0.69-2.55,2.63
		c-0.14,0.34-0.25,0.69-0.33,1.03c-0.07-0.59-0.22-0.98-0.27-0.98c-0.1,0-1.76,0.69-2.58,2.67c-0.19,0.46-0.29,0.93-0.34,1.37
		c-0.15-0.69-0.41-1.12-0.5-1.01c-0.57,0.73-1.69,1.05-2.29,2.88c-0.14,0.43-0.2,0.86-0.2,1.26c-0.25-0.62-0.59-0.98-0.67-0.96
		c-0.16,0.03-1.85,1.64-2.1,3.26c-0.1,0.64-0.05,1.23,0.05,1.73c-0.32-0.52-0.75-0.9-0.93-1.44c-0.27,0.14-1.7,1.49-1.74,3.21
		c-0.02,0.67,0.08,1.3,0.22,1.83c-0.48-0.86-1.15-1.27-1.23-1.22c-0.12,0.08-1.19,1.23-1.44,3.31
		C353.16,53.18,353.22,53.64,353.34,54.07z M375.53,30.19c0.85-1.01,2.3-1.82,2.46-1.72c0.17,0.1-0.24,1.66-1.18,2.58
		c-0.94,0.93-2.4,1.83-2.57,1.82C374.08,32.86,374.77,31.1,375.53,30.19z M372.77,34.1c-0.83,0.67-1.2,1.12-1.69,1.9
		c-0.16,0.27-0.57-1.49,0.51-3.18c0.66-1.03,1.97-1.96,1.94-1.84C373.44,31.4,374.17,32.96,372.77,34.1z M369.73,36.35
		c-1.01,1.51-1.07,0.99-2.18,2.47c-0.06,0.08-0.08-1.93,0.31-2.81c0.62-1.4,1.71-2.22,1.87-2.25
		C369.89,33.73,370.29,35.51,369.73,36.35z M366.41,39.37c-0.52,0.91-1,0.7-1.86,1.99c-0.1,0.14-0.33-1.07,0.19-2.7
		c0.4-1.26,1.64-2.04,1.77-2.08C366.72,36.54,367.03,38.29,366.41,39.37z M363.32,42.57c-0.53,1.16-0.87,1.19-1.49,1.91
		c-0.11,0.12-0.57-1.1-0.12-2.64c0.36-1.23,1.18-1.69,1.58-2.1C363.45,39.58,363.89,41.34,363.32,42.57z M360.81,44.55
		c0,0.35-0.04,0.55-0.14,0.9c-0.38,1.3-1.14,1.85-1.56,2.44c-0.17-0.38-0.47-0.93-0.48-1.76c0-1.57,0.95-2.91,1.55-3.34
		C360.41,42.79,360.81,43.74,360.81,44.55z M358.25,48.39c-0.03,1.83-1.18,2.9-1.52,3.24c-0.21-0.36-0.63-1.3-0.66-2.27
		c-0.06-1.88,0.72-2.55,1.06-2.92C357.29,46.98,358.27,47.41,358.25,48.39z M354.63,50.27c0.53,0.27,1.16,1.03,1.22,2.45
		c0.06,1.43-0.96,2.63-1.36,2.82c-0.28-1.09-0.81-1.32-0.8-2.4C353.7,51.96,354.3,50.66,354.63,50.27z M356.81,54.03
		c1.37-0.6,2.87-0.5,2.93-0.45c0.06,0.06-0.44,1.75-1.77,2.46c-1.33,0.71-2.84,0.78-2.97,0.61
		C354.92,56.56,355.44,54.63,356.81,54.03z M356.71,53.01c0.09-0.45,0.9-1.96,2.12-2.51h0c1.23-0.55,2.65-0.51,2.81-0.44
		c0.16,0.07-0.51,1.67-1.74,2.26C358.51,52.99,357.96,52.61,356.71,53.01z M358.76,49.48c0.06-0.14,1.06-1.93,2.23-2.48
		c1.16-0.54,2.57-0.43,2.66-0.4c0.1,0.03-0.53,1.62-1.86,2.28C360.47,49.53,358.71,49.62,358.76,49.48z M361.44,45.9
		c-0.1-0.07,1.32-1.93,2.5-2.47c1.04-0.48,2.4-0.38,2.51-0.3c0.11,0.08-0.55,1.64-1.92,2.24C363.22,45.93,361.53,45.97,361.44,45.9z
		 M364.64,42.35c-0.08-0.04,1-1.88,2.22-2.35c1.16-0.45,2.31-0.04,2.66-0.02c0.28,0.02-0.4,1.35-1.99,1.94
		C366.2,42.42,364.84,42.46,364.64,42.35z M368.24,38.94c0.02-0.09,1.21-1.76,2.44-2.19c1.17-0.4,2.59-0.13,2.75-0.07
		c0.15,0.06-0.83,1.52-2.32,1.97C369.75,39.07,368.22,39.03,368.24,38.94z M371.87,35.99c-0.16-0.11,1.28-1.71,2.45-2.16
		c1.14-0.43,2.38-0.35,2.48-0.3c0.1,0.06-0.75,1.45-2.13,2.01C373.37,36.06,372.03,36.1,371.87,35.99z M351.99,68.72
		c-6.48-5.16-10.36-12.95-10.36-21.08c0-14.76,12.01-26.77,26.78-26.77c4.31,0,8.63,1.08,12.42,3.05c0.08,0.04,0.09,0.14,0.02,0.2
		c-1.11,0.97-2.66,2.88-3.05,3.41c-2.95-1.38-6.1-2.09-9.39-2.09c-12.24,0-22.19,9.95-22.19,22.19c0,5.46,1.85,10.44,5.34,14.44
		c-0.2,0.46-0.56,1.48-0.56,2.83C351,66.02,351.21,67.3,351.99,68.72z M352.04,61.27c0,0-0.01,0.01-0.01,0.01
		c-3.22-3.8-4.92-8.5-4.92-13.64c0-11.75,9.56-21.31,21.31-21.31c3.1,0,6.08,0.65,8.87,1.93c-0.37,0.17-0.79,0.42-1.22,0.78
		c-2.45-1.04-4.92-1.53-7.64-1.53c-11.1,0-20.14,9.03-20.14,20.13c0,4.82,1.5,9.05,4.45,12.6
		C352.55,60.49,352.31,60.86,352.04,61.27z M353.1,59.6c-0.39-0.37-1.23-1.3-1.31-2.5c0-0.06-0.01-0.12-0.01-0.17
		c0-1.29,0.57-2.56,0.71-2.7c0.14-0.14,1.6,0.99,1.62,2.62C354.13,58.24,353.48,59.05,353.1,59.6z M355.5,57.44
		c1.16-0.55,2.88-0.42,2.79-0.34c-0.09,0.08-0.55,1.75-1.85,2.41c-1.3,0.65-2.16,0.48-2.63,0.39
		C354.51,59.13,354.36,57.98,355.5,57.44z M357.07,71.36c-0.2-0.79-0.12-1.88,0.15-2.17c0.52-0.25,1.47-0.35,1.49-0.05
		c0.03,0.48-0.33,1.63,0.09,3.06C358.7,72.43,357.4,72.33,357.07,71.36z M357.15,68.05c-0.1-0.59,0.47-1.17,0.46-2.46
		c-0.01-1.59-1.98-3.77-3.31-5.18c0.62,0,1.44-0.15,2.36-0.57c1.98-0.92,2.37-3.02,2.42-3.1c0.03-0.04-0.44-0.13-1.12-0.14
		c0.07-0.04,0.15-0.07,0.22-0.11c1.94-1.04,2.44-3.28,2.35-3.33c-0.04-0.02-0.52-0.1-1.19-0.08c0.19-0.06,0.38-0.13,0.59-0.21
		c2.05-0.81,2.62-3.09,2.55-3.17c-0.03-0.03-0.44-0.11-1.04-0.13c0.18-0.07,0.37-0.15,0.56-0.25c1.87-0.93,2.52-3.02,2.42-3.09
		c-0.04-0.03-0.42-0.1-0.97-0.11c0.42-0.09,0.87-0.23,1.35-0.44c2-0.88,2.65-2.79,2.56-2.88c-0.04-0.03-0.38-0.13-0.89-0.17
		c0.4-0.09,0.84-0.21,1.3-0.37c1.98-0.68,2.78-2.57,2.66-2.58c-0.27-0.02-0.64-0.15-1.11-0.24c0.54-0.03,1.17-0.13,1.96-0.4
		c2.14-0.72,2.9-2.01,2.94-2.57c0-0.04-0.26-0.15-0.67-0.24c0.49-0.09,0.98-0.21,1.39-0.38c2-0.81,2.83-2.77,2.9-2.94
		c0.36-0.12,0.75-0.27,1.16-0.45c0.21-0.09,0.4-0.19,0.58-0.3c0.1,0.07,0.25,0.19,0.49,0.33c0.3,0.19,0.41,0.24,0.26,0.37
		c-6.8,5.8-11.9,13.11-14.12,16.67c-0.06,0.1-0.18,0.08-0.37,0.07c-2.38-0.16-3.73,2.68-2.67,5.34c-0.14,0.54-1.27,1.58-1.35,1.66
		c-0.09,0.08-0.31,0.41,0.07,0.37c0.56-0.05,1.27-0.94,1.61-1.34c0.14,0.18,0.67,0.61,0.41,0.86c-2.02,1.99-4.03,3.06-4.19,3.13
		c-0.76,0.37,1.26,0.63,4.71-2.49c0.2-0.18,0.44,0.72,0.75,1.11c-0.59,1.95,0.87,5.73,0.64,6.91c-0.04,0.21-0.16,0.79-0.85,0.81
		c-3.42,0.07-3.75-0.09-5.49,0.43c-0.81,0.24-0.6,0.77-0.01,0.61c0.67-0.18,1.37-0.45,5.06-0.22c0.9,0.06,1.94-0.18,1.94-1.71
		c0.01-1.38-1.09-5.51-0.72-6.07c0.49,0.37,0.85,0.38,1.03,0.42c-0.05,1.35,2.12,5.69,1.15,8.09c-0.36,0.89-1.93,0.82-4.62,0.56
		C358.73,67.61,357.25,68.6,357.15,68.05z M367.67,71c-1.78,0.62-2.48-1.47-2.19-1.92c0.18-0.27,1.3,0.31,2.18-0.26
		C368.33,68.4,368.7,70.65,367.67,71z M359.59,72.31c-0.25-1.1-0.35-3.01,0.11-3.44c0.09-0.08,1.46-0.28,1.44,0.03
		c-0.11,1.32-0.64,2.79,0.36,4.25C361.87,73.7,359.92,73.78,359.59,72.31z M362.98,73.57c-0.48-0.12-1.8-2.22-0.72-4.73
		c0.11-0.27,1.76-0.1,2.04-0.02c0.28,0.08-0.23,2.05,2.04,2.93C366.56,71.84,366.32,74.39,362.98,73.57z M377.14,66.56
		c-0.77,2.65-1.15,3.71,0,6.58c0.15,0.38,0.27,0.67-0.07,0.61c-2.31-0.4-2.81-0.78-10.08-0.16c-0.52,0.04,0.17-1.01,0.09-1.73
		c0.66-0.09,1.72-0.39,1.95-1.47c0.27-1.31-0.64-2.27-0.54-2.46c1.03-2.01-0.07-4.24-0.94-7.97c-0.08-0.35,0.12-0.5,0.27-0.34
		c4.67,5.05,7.65,6.06,9.25,6.54C377.23,66.21,377.2,66.39,377.14,66.56z M389.08,52.76c-0.98,0.86-2.48,0.93-3.08,1.49
		c-0.32,0.29-0.46,0.74-0.12,1.55c0.2,0.47,0.33,0.52-0.34,0.7c-1.09,0.29-1.24,1.72-2.62,1.46c-0.55-0.1-0.16,0.25,0.04,0.27
		c0.79,0.08,1.11-0.15,1.38-0.41c0.28-0.26,0.65-0.73,1.07-0.89c0.44-0.17,0.88-0.15,0.89,0.17c0.01,0.25-0.55,0.65-0.78,0.76
		c0.28,0.15,1.15,0.59,0.41,1.09c-0.58,0.39-1.37-0.15-1.49-0.22c-0.17-0.1-0.5-0.05-0.39,0.08c0.43,0.52,1.58,0.39,1.37,0.66
		c-1.06,1.42-0.2,2.26-0.52,3.69c-0.33,1.45-2.31,2.25-3.84,2.52c-5.2,0.94-10.26-3.49-13.23-6.82c0.27-0.63,0.24-1.46-0.04-1.17
		c-0.26,0.28-0.21,0.74-0.83,0.9c-1.19,0.3-1.71-1.77-2.08-2.13c-1.45-1.42-2.02-3.43-1.16-5.18c0.87-1.77,2.69-1.42,3.42-0.34
		c0.9,1.33,0.48,2.09,1,2.49c0.72,0.56,1.44,0.06,1.64,0.01c0.55-0.15,0.51,1.3,2.38,1.23c2.01-0.07,1.78-3.2,2.07-3.48
		c2.58-2.52,1.26-4.76,0.79-5.28c-0.13-0.14,0.29-1.06,0.44-1.1c1.52-0.33,2.37-1.3,2.83-2.33c0,0,2.52-0.04,3.41-1.86
		c0.24-0.48,0.98,0.47,2.66-0.85c0.19-0.15,0.37-0.08,0.44,0.1c1.08,2.65,1.53,3.38,1.45,4.73c-0.06,0.98,2.62,6.43,2.82,6.9
		C389.3,52.02,389.33,52.54,389.08,52.76z"/>
	<path class="st0" d="M383.03,43.16c-1.46,0.05-3.17,1.85-3.72,2.1c-0.58,0.26-0.38,0.43-0.04,0.3c0.73-0.27,1.77-1.38,3.2-1.9
		c1.13-0.41,1.06,0.52,1.49,0.47C384.16,44.11,383.88,43.12,383.03,43.16z"/>
	<path class="st0" d="M383.36,44.59c-0.12,0.03,0.13,0.65-0.51,0.69c-1.38,0.08-2.47,1.39-3.31,1.78c-0.84,0.39-1.01,0.38-1.14,0.42
		c-0.11,0.03-0.07,0.17,0.02,0.19c3.51,0.47,4.86,0.34,4.89,0.21c0.06-0.24-0.2-0.36-0.14-0.52c0.13-0.39,0.2-1.13,0.05-1.64
		c-0.06-0.24,0.52-0.08,0.52-0.4C383.74,45.15,383.57,44.54,383.36,44.59z M382.82,47.36c-0.07,0.27-1.63,0.15-2.49,0.07
		c-0.2-0.02-0.54-0.05,0.11-0.44c0.51-0.31,1.22-0.82,2.14-1c0.08-0.01,0.22,0.01,0.26,0.18C382.93,46.61,382.89,47.08,382.82,47.36
		z"/>
	<path class="st0" d="M387.4,52.37c-0.27,0-1.35,0.49-1.76,0.75c-0.23,0.15-1.33,0.83-1.26-0.25c0.03-0.38,0.27-1.31,0.27-1.56
		c-0.01-0.39-0.32-0.23-0.33-0.01c-0.01,0.54-0.12,0.95-0.23,1.58c-0.09,0.54,0.37,1.21,1.1,0.82c0.61-0.32,1.43-0.88,2.16-1.02
		C387.56,52.65,387.59,52.37,387.4,52.37z"/>
	<path class="st0" d="M367.07,56.2c-0.21-0.08-0.15,0.35-0.43,0.3c-0.37-0.06-0.06-0.39-0.54-0.9c-0.24-0.25-0.84-0.36-1.28-1.07
		c-0.7-1.12-0.1-3.61,0.92-3.26c0.57,0.2,0.47,1.52,0.3,2.42c-0.11,0.55,0.75,0.82,0.83,0.63c0.13-0.32-0.32-0.29-0.42-0.59
		c-0.16-0.45,1.05-2.27-0.53-2.8c-1.15-0.38-1.91,1.07-1.77,2.67c0.12,1.35,1.02,1.91,1.53,2.1c0.7,0.26,0.17,1.21,1.11,1.21
		C367.2,56.94,367.29,56.29,367.07,56.2z"/>
	<path class="st0" d="M376.29,26.18c0.05,0.02,0.1,0,0.14-0.04l1.95-2.47c0.05-0.06,0.03-0.16-0.05-0.19
		c-0.11-0.04-0.22-0.09-0.33-0.13c-0.05-0.02-0.11,0-0.14,0.04l-1.96,2.48c-0.05,0.07-0.02,0.16,0.06,0.19
		C376.07,26.1,376.18,26.14,376.29,26.18z"/>
	<path class="st0" d="M372.67,25.18c0.11,0.02,0.22,0.04,0.34,0.07c0.06,0.01,0.12-0.02,0.14-0.07l1.14-2.83
		c0.03-0.07-0.01-0.15-0.09-0.16c-0.13-0.03-0.25-0.05-0.38-0.08c-0.03-0.01-0.07,0.01-0.08,0.04c-0.14,0.36-0.94,2.33-1.16,2.87
		C372.55,25.09,372.6,25.16,372.67,25.18z"/>
	<path class="st0" d="M368.65,24.78c0.11,0,0.23,0,0.34,0.01c0.06,0,0.12-0.05,0.12-0.11l0.28-3c0.01-0.07-0.05-0.13-0.12-0.13
		c-0.11,0-0.23-0.01-0.34-0.01c-0.06,0-0.12,0.05-0.12,0.11l-0.28,3C368.52,24.72,368.58,24.78,368.65,24.78z"/>
	<path class="st0" d="M364.74,25.08c0.11-0.02,0.22-0.03,0.34-0.05c0.07-0.01,0.12-0.08,0.1-0.14l-0.57-2.96
		c-0.01-0.06-0.07-0.11-0.14-0.1c-0.11,0.02-0.23,0.03-0.34,0.05c-0.07,0.01-0.11,0.08-0.1,0.14l0.57,2.95
		C364.62,25.05,364.68,25.09,364.74,25.08z"/>
	<path class="st0" d="M360.75,25.99c0.03,0.05,0.09,0.08,0.15,0.06c0.11-0.04,0.22-0.07,0.32-0.11c0.07-0.02,0.1-0.1,0.07-0.17
		l-1.35-2.72c-0.03-0.06-0.09-0.08-0.15-0.06c-0.11,0.04-0.22,0.08-0.32,0.12c-0.07,0.02-0.1,0.1-0.07,0.17L360.75,25.99z"/>
	<path class="st0" d="M357.03,27.71c0.04,0.04,0.1,0.05,0.15,0.03c0.1-0.06,0.2-0.11,0.3-0.17c0.07-0.04,0.09-0.13,0.03-0.19
		l-2.02-2.31c-0.04-0.04-0.1-0.05-0.15-0.03c-0.1,0.06-0.2,0.12-0.3,0.18c-0.07,0.04-0.08,0.13-0.03,0.19L357.03,27.71z"/>
	<path class="st0" d="M353.56,30.16c0.05,0.03,0.11,0.03,0.15-0.01c0.09-0.08,0.18-0.15,0.27-0.23c0.06-0.05,0.06-0.15-0.01-0.19
		l-2.56-1.78c-0.05-0.03-0.11-0.03-0.15,0.01c-0.09,0.08-0.18,0.16-0.26,0.23c-0.06,0.05-0.05,0.15,0.01,0.19L353.56,30.16z"/>
	<path class="st0" d="M350.54,33.27c0.05,0.02,0.11,0,0.14-0.04c0.07-0.09,0.15-0.18,0.23-0.27c0.05-0.06,0.03-0.16-0.05-0.19
		l-2.94-1.15c-0.05-0.02-0.11,0-0.14,0.04c-0.07,0.09-0.14,0.19-0.22,0.28c-0.05,0.06-0.02,0.16,0.05,0.19L350.54,33.27z"/>
	<path class="st0" d="M344.98,36.49l3.15,0.44c0.05,0.01,0.1-0.02,0.12-0.06c0.06-0.11,0.11-0.21,0.17-0.32
		c0.04-0.08,0-0.17-0.09-0.18l-3.17-0.44c-0.05-0.01-0.1,0.02-0.13,0.07c-0.05,0.11-0.11,0.21-0.16,0.32
		C344.85,36.39,344.9,36.48,344.98,36.49z"/>
	<path class="st0" d="M343.26,41.27l3.21-0.31c0.05,0,0.09-0.04,0.1-0.09c0.04-0.12,0.07-0.23,0.11-0.35
		c0.03-0.08-0.04-0.17-0.13-0.16l-3.23,0.31c-0.05,0-0.09,0.04-0.11,0.09c-0.03,0.12-0.06,0.24-0.09,0.35
		C343.11,41.2,343.17,41.27,343.26,41.27z"/>
	<path class="st0" d="M345.7,45.09c0.01-0.12,0.03-0.25,0.04-0.37c0.01-0.09-0.07-0.16-0.16-0.13l-3.13,1.09
		c-0.05,0.02-0.08,0.06-0.08,0.11c-0.01,0.12-0.02,0.25-0.02,0.37c0,0.09,0.08,0.15,0.16,0.12l3.11-1.08
		C345.66,45.17,345.69,45.13,345.7,45.09z"/>
	<path class="st0" d="M345.62,49.36c-0.01-0.13-0.02-0.26-0.03-0.39c-0.01-0.09-0.11-0.15-0.19-0.1l-2.84,1.86
		c-0.04,0.03-0.06,0.07-0.05,0.12c0.02,0.12,0.03,0.25,0.05,0.37c0.01,0.09,0.11,0.13,0.19,0.08l2.81-1.85
		C345.6,49.45,345.62,49.41,345.62,49.36z"/>
	<path class="st0" d="M346.33,53.64c-0.03-0.13-0.07-0.26-0.1-0.39c-0.02-0.1-0.14-0.13-0.21-0.05l-2.31,2.54
		c-0.03,0.03-0.04,0.08-0.03,0.12c0.04,0.12,0.08,0.24,0.13,0.37c0.03,0.09,0.14,0.11,0.21,0.04l2.28-2.51
		C346.33,53.72,346.34,53.68,346.33,53.64z"/>
	<path class="st0" d="M347.51,57.43l-1.63,3.1c-0.02,0.04-0.02,0.08,0,0.12c0.07,0.12,0.14,0.23,0.2,0.35
		c0.05,0.08,0.17,0.08,0.21-0.01l1.61-3.06c0.02-0.03,0.02-0.08,0-0.11c-0.06-0.13-0.13-0.25-0.19-0.38
		C347.68,57.35,347.56,57.34,347.51,57.43z"/>
	<path class="st0" d="M349.8,60.91c-0.06-0.08-0.19-0.06-0.22,0.04l-0.87,3.59c-0.01,0.04,0,0.08,0.03,0.11
		c0.09,0.11,0.18,0.21,0.27,0.31c0.07,0.07,0.19,0.04,0.21-0.05l0.86-3.55c0.01-0.04,0-0.07-0.02-0.1
		C349.97,61.15,349.88,61.03,349.8,60.91z"/>
</g>
<g id="MPG_x5F_MPI_x5F_Trennlinie_x2F_Parting_x5F_Line">
	<line class="st1" x1="326.14" y1="16.16" x2="326.14" y2="79.21"/>
</g>
<g id="MPI_x5F_Platzhalter_x2F_Placeholder">
	<g>
		<defs>
			<rect id="SVGID_1_" x="252.45" y="10.95" width="66.36" height="74.2"/>
		</defs>
		<clipPath id="SVGID_2_">
			<use xlink:href="#SVGID_1_"  style="overflow:visible;"/>
		</clipPath>
		<path class="st2" d="M253.19,76.97c0.22,0,0.4-0.18,0.4-0.4c0-0.22-0.18-0.4-0.4-0.4c-0.22,0-0.4,0.18-0.4,0.4
			C252.79,76.79,252.97,76.97,253.19,76.97"/>
		<path class="st2" d="M253.19,81.4c0.41,0,0.74-0.33,0.74-0.74c0-0.41-0.33-0.74-0.74-0.74c-0.41,0-0.74,0.33-0.74,0.74
			C252.45,81.06,252.78,81.4,253.19,81.4"/>
		<path class="st2" d="M253.19,85.04c0.17,0,0.31-0.14,0.31-0.31s-0.14-0.31-0.31-0.31c-0.17,0-0.31,0.14-0.31,0.31
			S253.03,85.04,253.19,85.04"/>
		<path class="st2" d="M257.28,73.14c0.36,0,0.65-0.29,0.65-0.65c0-0.36-0.29-0.65-0.65-0.65s-0.65,0.29-0.65,0.65
			C256.63,72.85,256.92,73.14,257.28,73.14"/>
		<path class="st2" d="M257.28,77.95c0.76,0,1.38-0.62,1.38-1.38s-0.62-1.38-1.38-1.38c-0.76,0-1.38,0.62-1.38,1.38
			S256.51,77.95,257.28,77.95"/>
		<path class="st2" d="M257.28,81.54c0.49,0,0.89-0.4,0.89-0.89s-0.4-0.89-0.89-0.89c-0.49,0-0.89,0.4-0.89,0.89
			S256.78,81.54,257.28,81.54"/>
		<path class="st2" d="M257.28,85.04c0.17,0,0.31-0.14,0.31-0.31s-0.14-0.31-0.31-0.31c-0.17,0-0.31,0.14-0.31,0.31
			S257.11,85.04,257.28,85.04"/>
		<path class="st2" d="M261.36,68.71c0.17,0,0.31-0.14,0.31-0.31s-0.14-0.31-0.31-0.31s-0.31,0.14-0.31,0.31
			S261.19,68.71,261.36,68.71"/>
		<path class="st2" d="M261.36,74.08c0.89,0,1.61-0.71,1.61-1.59c0-0.88-0.72-1.59-1.61-1.59s-1.61,0.71-1.61,1.59
			C259.75,73.37,260.47,74.08,261.36,74.08"/>
		<path class="st2" d="M261.36,77.95c0.76,0,1.38-0.62,1.38-1.38s-0.62-1.38-1.38-1.38s-1.38,0.62-1.38,1.38
			S260.59,77.95,261.36,77.95"/>
		<path class="st2" d="M265.44,69.35c0.53,0,0.96-0.42,0.96-0.95c0-0.52-0.43-0.95-0.96-0.95c-0.53,0-0.96,0.42-0.96,0.95
			C264.48,68.93,264.91,69.35,265.44,69.35"/>
		<path class="st2" d="M265.44,74.26c0.98,0,1.77-0.79,1.77-1.77c0-0.98-0.79-1.77-1.77-1.77s-1.77,0.79-1.77,1.77
			C263.67,73.47,264.46,74.26,265.44,74.26"/>
		<path class="st2" d="M265.44,77.26c0.38,0,0.69-0.31,0.69-0.69c0-0.38-0.31-0.69-0.69-0.69c-0.38,0-0.69,0.31-0.69,0.69
			C264.75,76.95,265.06,77.26,265.44,77.26"/>
		<path class="st2" d="M269.52,69.89c0.82,0,1.49-0.67,1.49-1.49c0-0.82-0.67-1.49-1.49-1.49c-0.82,0-1.49,0.67-1.49,1.49
			C268.04,69.23,268.7,69.89,269.52,69.89"/>
		<path class="st2" d="M269.52,74.26c0.97,0,1.75-0.79,1.75-1.77c0-0.98-0.78-1.77-1.75-1.77c-0.97,0-1.75,0.79-1.75,1.77
			C267.77,73.47,268.56,74.26,269.52,74.26"/>
		<path class="st2" d="M273.6,64.63c0.17,0,0.31-0.14,0.31-0.31s-0.14-0.31-0.31-0.31s-0.31,0.14-0.31,0.31
			S273.44,64.63,273.6,64.63"/>
		<path class="st2" d="M273.6,70.23c1.01,0,1.83-0.82,1.83-1.83c0-1.01-0.82-1.82-1.83-1.82s-1.83,0.82-1.83,1.82
			C271.78,69.41,272.6,70.23,273.6,70.23"/>
		<path class="st2" d="M273.6,73.99c0.83,0,1.51-0.67,1.51-1.51s-0.67-1.51-1.51-1.51s-1.51,0.67-1.51,1.51
			S272.77,73.99,273.6,73.99"/>
		<path class="st2" d="M277.69,44.22c0.17,0,0.31-0.14,0.31-0.31c0-0.17-0.14-0.31-0.31-0.31s-0.31,0.14-0.31,0.31
			C277.38,44.08,277.52,44.22,277.69,44.22"/>
		<path class="st2" d="M277.69,48.3c0.17,0,0.31-0.14,0.31-0.31c0-0.17-0.14-0.31-0.31-0.31s-0.31,0.14-0.31,0.31
			C277.38,48.17,277.52,48.3,277.69,48.3"/>
		<path class="st2" d="M277.69,52.39c0.17,0,0.31-0.14,0.31-0.31c0-0.17-0.14-0.31-0.31-0.31s-0.31,0.14-0.31,0.31
			C277.38,52.25,277.52,52.39,277.69,52.39"/>
		<path class="st2" d="M277.69,65.19c0.48,0,0.86-0.39,0.86-0.87c0-0.48-0.39-0.87-0.86-0.87s-0.87,0.39-0.87,0.87
			C276.82,64.8,277.21,65.19,277.69,65.19"/>
		<path class="st2" d="M277.69,70.55c1.18,0,2.14-0.96,2.14-2.14s-0.96-2.14-2.14-2.14s-2.14,0.96-2.14,2.14
			S276.51,70.55,277.69,70.55"/>
		<path class="st2" d="M277.69,73.85c0.74,0,1.34-0.61,1.34-1.36s-0.6-1.36-1.34-1.36s-1.34,0.61-1.34,1.36
			S276.94,73.85,277.69,73.85"/>
		<path class="st2" d="M277.69,80.96c0.17,0,0.31-0.14,0.31-0.31s-0.14-0.31-0.31-0.31s-0.31,0.14-0.31,0.31
			S277.52,80.96,277.69,80.96"/>
		<path class="st2" d="M277.69,85.04c0.17,0,0.31-0.14,0.31-0.31s-0.14-0.31-0.31-0.31s-0.31,0.14-0.31,0.31
			S277.52,85.04,277.69,85.04"/>
		<path class="st3" d="M281.77,31.98c0.17,0,0.31-0.14,0.31-0.31c0-0.17-0.14-0.31-0.31-0.31s-0.31,0.14-0.31,0.31
			C281.46,31.84,281.6,31.98,281.77,31.98"/>
		<path class="st2" d="M281.77,36.51c0.42,0,0.76-0.34,0.76-0.76c0-0.42-0.34-0.76-0.76-0.76S281,35.33,281,35.75
			C281,36.17,281.35,36.51,281.77,36.51"/>
		<path class="st2" d="M281.77,40.89c0.58,0,1.06-0.47,1.06-1.06s-0.47-1.06-1.06-1.06c-0.58,0-1.06,0.47-1.06,1.06
			S281.18,40.89,281.77,40.89"/>
		<path class="st2" d="M281.77,45.07c0.62,0,1.13-0.51,1.13-1.15c0-0.64-0.51-1.15-1.13-1.15s-1.13,0.51-1.13,1.15
			C280.64,44.55,281.14,45.07,281.77,45.07"/>
		<path class="st2" d="M281.77,49.09c0.61,0,1.1-0.49,1.1-1.09c0-0.6-0.49-1.09-1.1-1.09c-0.61,0-1.1,0.49-1.1,1.09
			C280.67,48.6,281.16,49.09,281.77,49.09"/>
		<path class="st2" d="M281.77,52.92c0.47,0,0.85-0.38,0.85-0.84s-0.38-0.85-0.85-0.85s-0.85,0.38-0.85,0.85
			S281.3,52.92,281.77,52.92"/>
		<path class="st2" d="M281.77,56.64c0.25,0,0.46-0.21,0.46-0.48c0-0.26-0.2-0.48-0.46-0.48c-0.25,0-0.46,0.21-0.46,0.48
			C281.31,56.42,281.52,56.64,281.77,56.64"/>
		<path class="st2" d="M281.77,60.55c0.17,0,0.31-0.14,0.31-0.31s-0.14-0.31-0.31-0.31s-0.31,0.14-0.31,0.31
			S281.6,60.55,281.77,60.55"/>
		<path class="st2" d="M281.77,65.71c0.76,0,1.38-0.62,1.38-1.38s-0.62-1.38-1.38-1.38s-1.38,0.62-1.38,1.38S281,65.71,281.77,65.71
			"/>
		<path class="st2" d="M281.77,70.66c1.25,0,2.26-1.01,2.26-2.26c0-1.25-1.01-2.26-2.26-2.26s-2.26,1.01-2.26,2.26
			C279.51,69.65,280.52,70.66,281.77,70.66"/>
		<path class="st2" d="M281.77,73.99c0.82,0,1.49-0.67,1.49-1.51s-0.66-1.51-1.49-1.51c-0.82,0-1.49,0.67-1.49,1.51
			S280.95,73.99,281.77,73.99"/>
		<path class="st2" d="M281.77,77.4c0.46,0,0.83-0.37,0.83-0.83s-0.37-0.83-0.83-0.83s-0.83,0.37-0.83,0.83S281.31,77.4,281.77,77.4
			"/>
		<path class="st2" d="M281.77,81.59c0.52,0,0.93-0.42,0.93-0.93s-0.42-0.93-0.93-0.93s-0.93,0.42-0.93,0.93
			S281.25,81.59,281.77,81.59"/>
		<path class="st2" d="M281.77,85.15c0.22,0,0.4-0.19,0.4-0.42c0-0.23-0.18-0.42-0.4-0.42s-0.4,0.19-0.4,0.42
			C281.36,84.96,281.54,85.15,281.77,85.15"/>
		<path class="st2" d="M285.85,23.81c0.17,0,0.31-0.14,0.31-0.31c0-0.17-0.14-0.31-0.31-0.31s-0.31,0.14-0.31,0.31
			C285.54,23.67,285.68,23.81,285.85,23.81"/>
		<path class="st2" d="M285.85,28.72c0.62,0,1.13-0.51,1.13-1.13c0-0.62-0.51-1.13-1.13-1.13s-1.13,0.51-1.13,1.13
			C284.72,28.21,285.23,28.72,285.85,28.72"/>
		<path class="st3" d="M285.85,33.42c0.97,0,1.75-0.78,1.75-1.75c0-0.97-0.78-1.75-1.75-1.75s-1.75,0.78-1.75,1.75
			C284.1,32.64,284.88,33.42,285.85,33.42"/>
		<path class="st2" d="M285.85,42.18c1.29,0,2.34-1.05,2.34-2.34s-1.05-2.34-2.34-2.34s-2.34,1.05-2.34,2.34
			S284.56,42.18,285.85,42.18"/>
		<path class="st2" d="M285.85,46.39c1.37,0,2.48-1.11,2.48-2.48c0-1.37-1.11-2.48-2.48-2.48s-2.48,1.11-2.48,2.48
			C283.37,45.28,284.48,46.39,285.85,46.39"/>
		<path class="st2" d="M285.85,50.34c1.29,0,2.34-1.05,2.34-2.34s-1.05-2.34-2.34-2.34s-2.34,1.05-2.34,2.34
			S284.56,50.34,285.85,50.34"/>
		<path class="st2" d="M285.85,54.16c1.15,0,2.09-0.93,2.09-2.09s-0.93-2.09-2.09-2.09s-2.09,0.93-2.09,2.09
			S284.7,54.16,285.85,54.16"/>
		<path class="st2" d="M285.85,58.09c1.06,0,1.93-0.86,1.93-1.93s-0.86-1.93-1.93-1.93s-1.93,0.86-1.93,1.93
			S284.79,58.09,285.85,58.09"/>
		<path class="st2" d="M285.85,62.05c1.01,0,1.82-0.81,1.82-1.8c0-1-0.82-1.8-1.82-1.8s-1.83,0.81-1.83,1.8
			C284.02,61.24,284.84,62.05,285.85,62.05"/>
		<path class="st2" d="M285.85,66.37c1.13,0,2.05-0.92,2.05-2.05c0-1.13-0.92-2.05-2.05-2.05s-2.05,0.92-2.05,2.05
			C283.8,65.46,284.72,66.37,285.85,66.37"/>
		<path class="st2" d="M285.85,70.63c1.23,0,2.22-0.99,2.22-2.22c0-1.23-1-2.22-2.22-2.22c-1.23,0-2.22,0.99-2.22,2.22
			C283.63,69.63,284.62,70.63,285.85,70.63"/>
		<path class="st2" d="M285.85,74.37c1.04,0,1.87-0.84,1.87-1.89c0-1.04-0.84-1.89-1.87-1.89s-1.87,0.84-1.87,1.89
			C283.98,73.53,284.81,74.37,285.85,74.37"/>
		<path class="st2" d="M285.85,78.16c0.89,0,1.61-0.71,1.61-1.59s-0.72-1.59-1.61-1.59s-1.61,0.71-1.61,1.59
			S284.96,78.16,285.85,78.16"/>
		<path class="st2" d="M285.85,81.59c0.52,0,0.93-0.42,0.93-0.93s-0.42-0.93-0.93-0.93s-0.93,0.42-0.93,0.93
			S285.33,81.59,285.85,81.59"/>
		<path class="st2" d="M289.93,19.73c0.17,0,0.31-0.14,0.31-0.31c0-0.17-0.14-0.31-0.31-0.31c-0.17,0-0.31,0.14-0.31,0.31
			C289.63,19.59,289.76,19.73,289.93,19.73"/>
		<path class="st2" d="M289.93,24.96c0.8,0,1.46-0.65,1.46-1.46s-0.65-1.46-1.46-1.46c-0.81,0-1.46,0.65-1.46,1.46
			S289.13,24.96,289.93,24.96"/>
		<path class="st2" d="M289.93,29.77c1.2,0,2.18-0.98,2.18-2.18c0-1.2-0.98-2.18-2.18-2.18c-1.2,0-2.18,0.97-2.18,2.18
			C287.75,28.79,288.73,29.77,289.93,29.77"/>
		<path class="st2" d="M289.93,33.71c1.12,0,2.04-0.91,2.04-2.04c0-1.12-0.91-2.04-2.04-2.04s-2.04,0.91-2.04,2.04
			C287.89,32.79,288.81,33.71,289.93,33.71"/>
		<path class="st3" d="M289.93,37.59c1.02,0,1.84-0.82,1.84-1.84s-0.83-1.84-1.84-1.84c-1.02,0-1.84,0.82-1.84,1.84
			S288.91,37.59,289.93,37.59"/>
		<path class="st3" d="M289.93,41.54c0.94,0,1.71-0.77,1.71-1.71c0-0.94-0.77-1.71-1.71-1.71c-0.95,0-1.71,0.77-1.71,1.71
			C288.22,40.78,288.99,41.54,289.93,41.54"/>
		<path class="st2" d="M289.93,45.28c0.76,0,1.38-0.61,1.38-1.36c0-0.75-0.62-1.36-1.38-1.36c-0.76,0-1.38,0.61-1.38,1.36
			C288.56,44.67,289.17,45.28,289.93,45.28"/>
		<path class="st2" d="M289.93,49.29c0.71,0,1.29-0.58,1.29-1.29s-0.58-1.29-1.29-1.29s-1.29,0.58-1.29,1.29
			S289.22,49.29,289.93,49.29"/>
		<path class="st2" d="M289.93,53.74c0.91,0,1.65-0.74,1.65-1.66c0-0.92-0.74-1.66-1.65-1.66c-0.91,0-1.65,0.74-1.65,1.66
			C288.28,53,289.02,53.74,289.93,53.74"/>
		<path class="st2" d="M289.93,57.73c0.86,0,1.56-0.7,1.56-1.57c0-0.87-0.7-1.57-1.56-1.57c-0.86,0-1.56,0.7-1.56,1.57
			C288.37,57.03,289.07,57.73,289.93,57.73"/>
		<path class="st2" d="M289.93,61.89c0.91,0,1.65-0.74,1.65-1.65c0-0.91-0.74-1.65-1.65-1.65c-0.91,0-1.65,0.74-1.65,1.65
			C288.28,61.15,289.02,61.89,289.93,61.89"/>
		<path class="st2" d="M289.93,66.67c1.29,0,2.34-1.05,2.34-2.34s-1.05-2.34-2.34-2.34c-1.29,0-2.34,1.05-2.34,2.34
			S288.64,66.67,289.93,66.67"/>
		<path class="st2" d="M289.93,70.32c1.06,0,1.91-0.86,1.91-1.91c0-1.06-0.86-1.92-1.91-1.92c-1.06,0-1.91,0.86-1.91,1.92
			C288.02,69.46,288.87,70.32,289.93,70.32"/>
		<path class="st2" d="M289.93,73.55c0.58,0,1.06-0.47,1.06-1.06s-0.47-1.06-1.06-1.06c-0.58,0-1.06,0.47-1.06,1.06
			S289.35,73.55,289.93,73.55"/>
		<path class="st2" d="M289.93,77.08c0.29,0,0.52-0.23,0.52-0.51c0-0.28-0.23-0.51-0.52-0.51c-0.29,0-0.52,0.23-0.52,0.51
			C289.41,76.85,289.65,77.08,289.93,77.08"/>
		<path class="st2" d="M294.01,15.65c0.17,0,0.31-0.14,0.31-0.31c0-0.17-0.14-0.31-0.31-0.31s-0.31,0.14-0.31,0.31
			C293.71,15.51,293.84,15.65,294.01,15.65"/>
		<path class="st2" d="M294.01,20.8c0.76,0,1.38-0.62,1.38-1.38c0-0.76-0.62-1.38-1.38-1.38c-0.76,0-1.38,0.62-1.38,1.38
			C292.64,20.18,293.25,20.8,294.01,20.8"/>
		<path class="st2" d="M294.01,25.48c1.09,0,1.98-0.88,1.98-1.98s-0.89-1.97-1.98-1.97s-1.98,0.88-1.98,1.97
			S292.92,25.48,294.01,25.48"/>
		<path class="st2" d="M294.01,29.3c0.95,0,1.71-0.77,1.71-1.71c0-0.94-0.77-1.71-1.71-1.71s-1.71,0.77-1.71,1.71
			C292.3,28.53,293.07,29.3,294.01,29.3"/>
		<path class="st2" d="M294.01,32.58c0.51,0,0.91-0.41,0.91-0.91c0-0.51-0.41-0.92-0.91-0.92s-0.91,0.41-0.91,0.92
			C293.1,32.17,293.51,32.58,294.01,32.58"/>
		<path class="st2" d="M294.01,36.15c0.22,0,0.4-0.18,0.4-0.4c0-0.22-0.18-0.4-0.4-0.4s-0.4,0.18-0.4,0.4
			C293.62,35.97,293.79,36.15,294.01,36.15"/>
		<path class="st2" d="M294.01,41.09c0.7,0,1.26-0.56,1.26-1.25s-0.56-1.25-1.26-1.25c-0.7,0-1.26,0.56-1.26,1.25
			S293.32,41.09,294.01,41.09"/>
		<path class="st2" d="M294.01,44.79c0.47,0,0.85-0.39,0.85-0.87c0-0.48-0.38-0.87-0.85-0.87c-0.47,0-0.85,0.39-0.85,0.87
			C293.16,44.4,293.54,44.79,294.01,44.79"/>
		<path class="st2" d="M294.01,52.85c0.42,0,0.76-0.34,0.76-0.77c0-0.43-0.34-0.77-0.76-0.77s-0.76,0.35-0.76,0.77
			C293.25,52.51,293.59,52.85,294.01,52.85"/>
		<path class="st2" d="M294.01,57.44c0.71,0,1.28-0.57,1.28-1.28c0-0.71-0.57-1.28-1.28-1.28c-0.71,0-1.28,0.57-1.28,1.28
			C292.73,56.87,293.3,57.44,294.01,57.44"/>
		<path class="st2" d="M294.01,61.85c0.89,0,1.61-0.72,1.61-1.61c0-0.89-0.72-1.61-1.61-1.61s-1.61,0.72-1.61,1.61
			C292.4,61.13,293.12,61.85,294.01,61.85"/>
		<path class="st2" d="M294.01,66.67c1.29,0,2.34-1.05,2.34-2.34s-1.05-2.34-2.34-2.34s-2.34,1.05-2.34,2.34
			S292.72,66.67,294.01,66.67"/>
		<path class="st2" d="M294.01,69.7c0.71,0,1.29-0.58,1.29-1.29c0-0.72-0.58-1.29-1.29-1.29s-1.29,0.58-1.29,1.29
			C292.72,69.12,293.3,69.7,294.01,69.7"/>
		<path class="st2" d="M298.1,16.28c0.52,0,0.93-0.42,0.93-0.93s-0.42-0.93-0.93-0.93s-0.93,0.42-0.93,0.93
			S297.58,16.28,298.1,16.28"/>
		<path class="st2" d="M298.1,21.07c0.91,0,1.65-0.74,1.65-1.65c0-0.91-0.74-1.65-1.65-1.65s-1.65,0.74-1.65,1.65
			C296.45,20.34,297.18,21.07,298.1,21.07"/>
		<path class="st2" d="M298.1,24.4c0.49,0,0.89-0.4,0.89-0.89s-0.4-0.89-0.89-0.89s-0.89,0.4-0.89,0.89S297.6,24.4,298.1,24.4"/>
		<path class="st2" d="M298.1,28.46c0.48,0,0.87-0.39,0.87-0.87c0-0.48-0.39-0.87-0.87-0.87s-0.87,0.39-0.87,0.87
			C297.22,28.07,297.61,28.46,298.1,28.46"/>
		<path class="st2" d="M298.1,32.93c0.7,0,1.26-0.56,1.26-1.26c0-0.7-0.56-1.26-1.26-1.26s-1.26,0.57-1.26,1.26
			C296.83,32.37,297.4,32.93,298.1,32.93"/>
		<path class="st2" d="M298.1,36.06c0.17,0,0.31-0.14,0.31-0.31c0-0.17-0.14-0.31-0.31-0.31s-0.31,0.14-0.31,0.31
			C297.79,35.92,297.93,36.06,298.1,36.06"/>
		<path class="st2" d="M298.1,40.56c0.4,0,0.73-0.33,0.73-0.73c0-0.4-0.33-0.73-0.73-0.73s-0.73,0.33-0.73,0.73
			C297.36,40.24,297.69,40.56,298.1,40.56"/>
		<path class="st2" d="M298.1,45.19c0.7,0,1.26-0.57,1.26-1.27c0-0.7-0.56-1.27-1.26-1.27s-1.26,0.57-1.26,1.27
			C296.83,44.62,297.4,45.19,298.1,45.19"/>
		<path class="st2" d="M298.1,48.55c0.3,0,0.55-0.25,0.55-0.55c0-0.3-0.25-0.55-0.55-0.55s-0.55,0.25-0.55,0.55
			C297.55,48.3,297.79,48.55,298.1,48.55"/>
		<path class="st2" d="M298.1,57.44c0.71,0,1.29-0.57,1.29-1.28c0-0.71-0.58-1.28-1.29-1.28s-1.29,0.57-1.29,1.28
			C296.8,56.87,297.38,57.44,298.1,57.44"/>
		<path class="st2" d="M298.1,62.63c1.32,0,2.39-1.07,2.39-2.39c0-1.32-1.07-2.39-2.39-2.39s-2.39,1.07-2.39,2.39
			C295.71,61.56,296.78,62.63,298.1,62.63"/>
		<path class="st2" d="M298.1,66.15c1.01,0,1.83-0.82,1.83-1.82c0-1.01-0.82-1.82-1.83-1.82s-1.83,0.82-1.83,1.82
			C296.27,65.33,297.09,66.15,298.1,66.15"/>
		<path class="st2" d="M298.1,68.93c0.29,0,0.52-0.23,0.52-0.52c0-0.29-0.23-0.52-0.52-0.52s-0.52,0.23-0.52,0.52
			C297.58,68.69,297.81,68.93,298.1,68.93"/>
		<path class="st2" d="M302.18,11.57c0.17,0,0.31-0.14,0.31-0.31c0-0.17-0.14-0.31-0.31-0.31s-0.31,0.14-0.31,0.31
			C301.87,11.43,302.01,11.57,302.18,11.57"/>
		<path class="st2" d="M302.18,16.47c0.62,0,1.13-0.51,1.13-1.13c0-0.62-0.51-1.13-1.13-1.13s-1.13,0.51-1.13,1.13
			C301.05,15.97,301.55,16.47,302.18,16.47"/>
		<path class="st2" d="M302.18,20.22c0.44,0,0.79-0.35,0.79-0.79c0-0.44-0.36-0.79-0.79-0.79c-0.44,0-0.79,0.36-0.79,0.79
			C301.39,19.86,301.74,20.22,302.18,20.22"/>
		<path class="st2" d="M302.18,32.76c0.6,0,1.09-0.49,1.09-1.09c0-0.6-0.49-1.09-1.09-1.09c-0.6,0-1.09,0.49-1.09,1.09
			C301.09,32.27,301.58,32.76,302.18,32.76"/>
		<path class="st2" d="M302.18,36.77c0.56,0,1.02-0.45,1.02-1.02c0-0.56-0.45-1.02-1.02-1.02s-1.02,0.45-1.02,1.02
			C301.16,36.31,301.62,36.77,302.18,36.77"/>
		<path class="st2" d="M302.18,44.88c0.53,0,0.97-0.43,0.97-0.97c0-0.53-0.43-0.97-0.97-0.97s-0.97,0.43-0.97,0.97
			C301.21,44.45,301.64,44.88,302.18,44.88"/>
		<path class="st2" d="M302.18,49.23c0.68,0,1.23-0.55,1.23-1.23s-0.55-1.23-1.23-1.23s-1.23,0.55-1.23,1.23
			S301.5,49.23,302.18,49.23"/>
		<path class="st2" d="M302.18,53.04c0.53,0,0.96-0.43,0.96-0.96c0-0.53-0.43-0.96-0.96-0.96c-0.53,0-0.96,0.43-0.96,0.96
			C301.22,52.61,301.65,53.04,302.18,53.04"/>
		<path class="st2" d="M302.18,58.16c1.1,0,2-0.89,2-2s-0.89-2-2-2c-1.1,0-2,0.89-2,2S301.08,58.16,302.18,58.16"/>
		<path class="st2" d="M302.18,62.27c1.12,0,2.04-0.91,2.04-2.03c0-1.12-0.91-2.03-2.04-2.03s-2.04,0.91-2.04,2.03
			C300.14,61.36,301.05,62.27,302.18,62.27"/>
		<path class="st2" d="M302.18,65.38c0.58,0,1.06-0.47,1.06-1.06s-0.47-1.06-1.06-1.06c-0.58,0-1.06,0.47-1.06,1.06
			S301.59,65.38,302.18,65.38"/>
		<path class="st2" d="M306.26,11.57c0.17,0,0.31-0.14,0.31-0.31c0-0.17-0.14-0.31-0.31-0.31c-0.17,0-0.31,0.14-0.31,0.31
			C305.95,11.43,306.09,11.57,306.26,11.57"/>
		<path class="st2" d="M306.26,15.8c0.25,0,0.46-0.2,0.46-0.46c0-0.25-0.2-0.46-0.46-0.46c-0.25,0-0.46,0.2-0.46,0.46
			C305.8,15.59,306.01,15.8,306.26,15.8"/>
		<path class="st2" d="M306.26,31.98c0.17,0,0.31-0.14,0.31-0.31c0-0.17-0.14-0.31-0.31-0.31c-0.17,0-0.31,0.14-0.31,0.31
			C305.95,31.84,306.09,31.98,306.26,31.98"/>
		<path class="st2" d="M306.26,37.03c0.7,0,1.26-0.57,1.26-1.28s-0.56-1.28-1.26-1.28c-0.7,0-1.26,0.57-1.26,1.28
			S305.56,37.03,306.26,37.03"/>
		<path class="st2" d="M306.26,40.65c0.44,0,0.79-0.36,0.79-0.81c0-0.45-0.36-0.81-0.79-0.81c-0.44,0-0.79,0.36-0.79,0.81
			C305.47,40.28,305.82,40.65,306.26,40.65"/>
		<path class="st2" d="M306.26,44.22c0.17,0,0.31-0.14,0.31-0.31c0-0.17-0.14-0.31-0.31-0.31c-0.17,0-0.31,0.14-0.31,0.31
			C305.95,44.08,306.09,44.22,306.26,44.22"/>
		<path class="st2" d="M306.26,49.55c0.86,0,1.56-0.7,1.56-1.56s-0.7-1.56-1.56-1.56c-0.86,0-1.56,0.7-1.56,1.56
			S305.4,49.55,306.26,49.55"/>
		<path class="st2" d="M306.26,54.07c1.09,0,1.98-0.89,1.98-1.99s-0.89-1.99-1.98-1.99s-1.98,0.89-1.98,1.99
			S305.17,54.07,306.26,54.07"/>
		<path class="st2" d="M306.26,58.05c1.04,0,1.89-0.84,1.89-1.89c0-1.04-0.84-1.89-1.89-1.89c-1.04,0-1.89,0.84-1.89,1.89
			C304.37,57.2,305.22,58.05,306.26,58.05"/>
		<path class="st2" d="M306.26,61.25c0.56,0,1.01-0.45,1.01-1.01s-0.45-1.01-1.01-1.01c-0.56,0-1.01,0.45-1.01,1.01
			S305.7,61.25,306.26,61.25"/>
		<path class="st2" d="M310.34,36.54c0.44,0,0.79-0.35,0.79-0.79c0-0.44-0.35-0.79-0.79-0.79c-0.44,0-0.79,0.36-0.79,0.79
			C309.55,36.19,309.9,36.54,310.34,36.54"/>
		<path class="st2" d="M310.34,41.22c0.76,0,1.38-0.62,1.38-1.38s-0.62-1.38-1.38-1.38s-1.38,0.62-1.38,1.38
			S309.58,41.22,310.34,41.22"/>
		<path class="st2" d="M310.34,45.2c0.71,0,1.29-0.57,1.29-1.28s-0.58-1.28-1.29-1.28s-1.29,0.57-1.29,1.28S309.63,45.2,310.34,45.2
			"/>
		<path class="st2" d="M310.34,49.55c0.86,0,1.56-0.7,1.56-1.56s-0.7-1.56-1.56-1.56c-0.86,0-1.56,0.7-1.56,1.56
			S309.48,49.55,310.34,49.55"/>
		<path class="st2" d="M310.34,53.36c0.71,0,1.28-0.57,1.28-1.28c0-0.71-0.57-1.28-1.28-1.28c-0.71,0-1.28,0.57-1.28,1.28
			C309.06,52.79,309.63,53.36,310.34,53.36"/>
		<path class="st2" d="M310.34,56.7c0.3,0,0.54-0.24,0.54-0.54c0-0.3-0.24-0.54-0.54-0.54s-0.54,0.24-0.54,0.54
			C309.8,56.46,310.04,56.7,310.34,56.7"/>
		<path class="st2" d="M314.42,36.06c0.17,0,0.31-0.14,0.31-0.31c0-0.17-0.14-0.31-0.31-0.31s-0.31,0.14-0.31,0.31
			C314.12,35.92,314.25,36.06,314.42,36.06"/>
		<path class="st2" d="M314.42,40.56c0.4,0,0.73-0.33,0.73-0.73c0-0.4-0.33-0.73-0.73-0.73c-0.4,0-0.73,0.33-0.73,0.73
			C313.69,40.24,314.02,40.56,314.42,40.56"/>
		<path class="st2" d="M314.42,44.35c0.24,0,0.44-0.2,0.44-0.44c0-0.24-0.2-0.44-0.44-0.44s-0.44,0.2-0.44,0.44
			C313.99,44.16,314.18,44.35,314.42,44.35"/>
		<path class="st2" d="M314.42,48.3c0.17,0,0.31-0.14,0.31-0.31c0-0.17-0.14-0.31-0.31-0.31s-0.31,0.14-0.31,0.31
			C314.12,48.17,314.25,48.3,314.42,48.3"/>
		<path class="st2" d="M318.5,44.22c0.17,0,0.31-0.14,0.31-0.31c0-0.17-0.14-0.31-0.31-0.31s-0.31,0.14-0.31,0.31
			C318.2,44.08,318.34,44.22,318.5,44.22"/>
		<path class="st3" d="M285.85,37.84c1.15,0,2.09-0.94,2.09-2.09c0-1.15-0.94-2.09-2.09-2.09s-2.09,0.94-2.09,2.09
			C283.76,36.91,284.7,37.84,285.85,37.84"/>
	</g>
</g>
<g id="MPI_x5F_DE_x5F_Master_x5F_one-line">
	<g id="MPI_x5F_DE_x5F_editable_x5F_Subline_x5F_one-line">
		<g>
			<path class="st0" d="M74.72,69.66h-4.21v4.22h-0.76v-9.02h5.59v0.64h-4.83v3.51h4.21V69.66z"/>
			<path class="st0" d="M83.74,64.86v6.16c0,0.61-0.14,1.14-0.4,1.59s-0.64,0.8-1.12,1.04C81.74,73.88,81.19,74,80.56,74
				c-0.95,0-1.71-0.26-2.28-0.78s-0.87-1.24-0.89-2.15v-6.21h0.76v6.1c0,0.76,0.22,1.35,0.65,1.77s1.02,0.63,1.77,0.63
				c0.74,0,1.33-0.21,1.76-0.63c0.43-0.42,0.65-1.01,0.65-1.76v-6.11H83.74z M78.76,63.28c0-0.14,0.05-0.26,0.14-0.36
				s0.21-0.15,0.37-0.15c0.16,0,0.28,0.05,0.38,0.15s0.14,0.22,0.14,0.36c0,0.14-0.05,0.25-0.14,0.35s-0.22,0.14-0.38,0.14
				c-0.16,0-0.28-0.05-0.37-0.14S78.76,63.41,78.76,63.28z M81.47,63.28c0-0.14,0.05-0.26,0.14-0.36c0.09-0.1,0.21-0.15,0.37-0.15
				c0.16,0,0.28,0.05,0.37,0.15c0.09,0.1,0.14,0.22,0.14,0.36c0,0.14-0.05,0.25-0.14,0.35c-0.09,0.1-0.22,0.14-0.37,0.14
				c-0.16,0-0.28-0.05-0.37-0.14C81.52,63.54,81.47,63.42,81.47,63.28z"/>
			<path class="st0" d="M89.87,70.12h-2.62v3.76h-0.77v-9.02h2.93c0.96,0,1.71,0.23,2.25,0.7c0.54,0.47,0.81,1.12,0.81,1.96
				c0,0.58-0.17,1.09-0.51,1.53s-0.79,0.75-1.36,0.92l2.26,3.84v0.08h-0.81L89.87,70.12z M87.25,69.47h2.34
				c0.64,0,1.16-0.18,1.54-0.55c0.39-0.36,0.58-0.83,0.58-1.41c0-0.64-0.2-1.13-0.61-1.48c-0.41-0.35-0.97-0.53-1.7-0.53h-2.15
				V69.47z"/>
			<path class="st0" d="M99.92,64.86l3.33,7.96l3.34-7.96h1.02v9.02h-0.76v-3.93l0.06-4.03l-3.36,7.96h-0.59l-3.35-7.92l0.06,3.97
				v3.95h-0.76v-9.02H99.92z"/>
			<path class="st0" d="M117.19,69.86c0,0.83-0.14,1.56-0.43,2.19s-0.7,1.11-1.23,1.45C115,73.83,114.38,74,113.68,74
				c-1.05,0-1.9-0.38-2.55-1.13s-0.97-1.77-0.97-3.05v-0.93c0-0.82,0.15-1.55,0.44-2.18c0.29-0.63,0.7-1.12,1.24-1.46
				c0.53-0.34,1.15-0.51,1.84-0.51c0.69,0,1.31,0.17,1.84,0.5c0.53,0.33,0.94,0.81,1.23,1.42c0.29,0.61,0.44,1.32,0.45,2.12V69.86z
				 M116.43,68.88c0-1.09-0.25-1.94-0.74-2.55c-0.49-0.62-1.17-0.92-2.02-0.92c-0.84,0-1.51,0.31-2,0.93
				c-0.5,0.62-0.75,1.48-0.75,2.59v0.94c0,1.07,0.25,1.92,0.74,2.54s1.17,0.94,2.02,0.94c0.86,0,1.54-0.31,2.02-0.93
				c0.48-0.62,0.72-1.48,0.72-2.58V68.88z"/>
			<path class="st0" d="M120.51,73.24h4.46v0.64h-5.22v-9.02h0.77V73.24z"/>
			<path class="st0" d="M132.05,69.55h-4.22v3.68h4.85v0.64h-5.61v-9.02h5.58v0.64h-4.82v3.41h4.22V69.55z"/>
			<path class="st0" d="M136.95,69.4l-1.27,1.25v3.23h-0.76v-9.02h0.76v4.86l4.62-4.86h0.96l-3.78,4.01l4.07,5.01h-0.93L136.95,69.4
				z"/>
			<path class="st0" d="M149.78,64.86v6.16c0,0.61-0.14,1.14-0.4,1.59s-0.64,0.8-1.12,1.04c-0.48,0.24-1.03,0.36-1.66,0.36
				c-0.95,0-1.71-0.26-2.28-0.78s-0.87-1.24-0.89-2.15v-6.21h0.76v6.1c0,0.76,0.22,1.35,0.65,1.77s1.02,0.63,1.77,0.63
				c0.74,0,1.33-0.21,1.76-0.63c0.43-0.42,0.65-1.01,0.65-1.76v-6.11H149.78z"/>
			<path class="st0" d="M153.3,73.24h4.46v0.64h-5.22v-9.02h0.77V73.24z"/>
			<path class="st0" d="M164.84,71.35h-4.1l-0.93,2.53h-0.8l3.41-9.02h0.73l3.41,9.02h-0.79L164.84,71.35z M160.98,70.7h3.62
				l-1.81-4.91L160.98,70.7z"/>
			<path class="st0" d="M171.9,70.12h-2.62v3.76h-0.77v-9.02h2.93c0.96,0,1.71,0.23,2.25,0.7c0.54,0.47,0.81,1.12,0.81,1.96
				c0,0.58-0.17,1.09-0.51,1.53s-0.79,0.75-1.36,0.92l2.26,3.84v0.08h-0.81L171.9,70.12z M169.28,69.47h2.34
				c0.64,0,1.16-0.18,1.54-0.55c0.39-0.36,0.58-0.83,0.58-1.41c0-0.64-0.2-1.13-0.61-1.48c-0.41-0.35-0.97-0.53-1.7-0.53h-2.15
				V69.47z"/>
			<path class="st0" d="M182.2,69.55h-4.22v3.68h4.85v0.64h-5.61v-9.02h5.58v0.64h-4.82v3.41h4.22V69.55z"/>
			<path class="st0" d="M195.31,72.81c-0.26,0.38-0.68,0.67-1.24,0.88c-0.56,0.21-1.2,0.32-1.89,0.32c-0.71,0-1.33-0.17-1.88-0.51
				c-0.55-0.34-0.98-0.82-1.28-1.44c-0.3-0.62-0.46-1.33-0.46-2.13v-1.14c0-1.25,0.32-2.24,0.95-2.96c0.63-0.72,1.48-1.09,2.55-1.09
				c0.93,0,1.68,0.24,2.24,0.71c0.57,0.47,0.9,1.12,1.01,1.96h-0.76c-0.11-0.66-0.38-1.17-0.81-1.51s-0.99-0.51-1.68-0.51
				c-0.84,0-1.51,0.3-2,0.9c-0.49,0.6-0.74,1.45-0.74,2.54v1.07c0,0.69,0.12,1.29,0.35,1.82c0.23,0.53,0.57,0.94,1,1.23
				c0.44,0.29,0.94,0.43,1.5,0.43c0.66,0,1.22-0.1,1.69-0.31c0.31-0.14,0.53-0.3,0.68-0.48v-2.33h-2.42V69.6h3.18V72.81z"/>
			<path class="st0" d="M203.09,69.55h-4.22v3.68h4.85v0.64h-5.61v-9.02h5.58v0.64h-4.82v3.41h4.22V69.55z"/>
			<path class="st0" d="M212.67,73.88h-0.76l-5.19-7.72v7.72h-0.77v-9.02h0.77l5.19,7.73v-7.73h0.76V73.88z"/>
			<path class="st0" d="M220.58,69.55h-4.22v3.68h4.85v0.64h-5.61v-9.02h5.58v0.64h-4.82v3.41h4.22V69.55z"/>
			<path class="st0" d="M229.7,65.5h-3.09v8.38h-0.76V65.5h-3.09v-0.64h6.94V65.5z"/>
			<path class="st0" d="M232.72,73.88h-0.76v-9.02h0.76V73.88z"/>
			<path class="st0" d="M237.84,69.4l-1.27,1.25v3.23h-0.76v-9.02h0.76v4.86l4.62-4.86h0.96l-3.78,4.01l4.07,5.01h-0.93L237.84,69.4
				z"/>
		</g>
	</g>
	<g id="MPI_x5F_DE_x5F_Lettering_x5F_one-line">
		<g>
			<g>
				<path class="st0" d="M85.48,55.92h-4.36v-1.9h4.36V55.92z"/>
			</g>
			<polygon class="st0" points="49.57,57.81 49.52,57.81 46.49,49.03 43.36,49.03 43.36,60.94 45.75,60.94 45.75,52.79 45.79,52.79 
				48.74,60.94 50.36,60.94 53.3,52.8 53.35,52.81 53.35,60.94 55.74,60.94 55.74,49.03 52.62,49.03 			"/>
			<path class="st0" d="M64.93,49.03h-2.45l-4.02,11.91h2.49l0.8-2.57h3.86l0.81,2.57h2.49L64.93,49.03z M62.35,56.5l1.32-4.2h0.05
				l1.32,4.2H62.35z"/>
			<polygon class="st0" points="80.67,60.94 76.93,54.94 80.47,49.03 77.69,49.03 75.45,53.25 73.25,49.03 70.49,49.03 74.02,54.94 
				70.4,60.94 73.19,60.94 75.49,56.65 77.78,60.94 			"/>
			<path class="st0" d="M96.11,50.08c-0.78-0.7-1.86-1.05-3.23-1.05h-4.56v11.91h2.39v-4.32h2.17c1.37,0,2.44-0.35,3.23-1.04
				c0.79-0.69,1.18-1.61,1.18-2.75C97.28,51.7,96.89,50.78,96.11,50.08z M94.39,54.24c-0.34,0.36-0.85,0.54-1.51,0.54h-2.17v-3.91
				h2.17c0.67,0,1.18,0.19,1.52,0.56c0.34,0.37,0.51,0.85,0.51,1.42C94.9,53.41,94.73,53.87,94.39,54.24z"/>
			<polygon class="st0" points="106.59,59.11 102.21,59.11 102.21,49.03 99.82,49.03 99.82,60.94 106.59,60.94 			"/>
			<path class="st0" d="M112.11,49.03l-4.02,11.91h2.49l0.8-2.57h3.86l0.81,2.57h2.49l-4-11.91H112.11z M111.98,56.5l1.32-4.2h0.05
				l1.32,4.2H111.98z"/>
			<polygon class="st0" points="123.42,52.92 123.47,52.91 128.27,60.94 130.66,60.94 130.66,49.03 128.27,49.03 128.27,57.05 
				128.22,57.06 123.42,49.03 121.04,49.03 121.04,60.94 123.42,60.94 			"/>
			<path class="st0" d="M141.98,49.92c-0.82-0.71-1.95-1.06-3.4-1.06c-1.39,0-2.51,0.46-3.37,1.39c-0.86,0.92-1.28,2.11-1.28,3.56
				v2.36c0,1.46,0.44,2.64,1.32,3.56c0.88,0.92,2.03,1.38,3.46,1.38c1.4,0,2.5-0.36,3.3-1.08c0.8-0.72,1.18-1.71,1.16-2.99
				L143.14,57h-2.31c0,0.77-0.18,1.35-0.53,1.72c-0.35,0.37-0.88,0.56-1.6,0.56c-0.75,0-1.34-0.29-1.76-0.87
				c-0.42-0.58-0.63-1.32-0.63-2.24v-2.38c0-0.91,0.2-1.65,0.6-2.23c0.4-0.58,0.96-0.86,1.67-0.86c0.77,0,1.34,0.19,1.71,0.56
				c0.37,0.37,0.55,0.94,0.55,1.71h2.32l0.02-0.05C143.2,51.63,142.8,50.63,141.98,49.92z"/>
			<polygon class="st0" points="155.65,49.03 152.7,49.03 149.44,53.9 148.77,53.9 148.77,49.03 146.38,49.03 146.38,60.94 
				148.77,60.94 148.77,55.97 149.64,55.97 152.93,60.94 155.97,60.94 151.53,54.57 			"/>
			<path class="st0" d="M160.52,55.92h-4.36v-1.9h4.36V55.92z"/>
			<path class="st0" d="M165.92,60.96h-2.45V49.08h2.45V60.96z"/>
			<path class="st0" d="M179.1,60.96h-2.45l-4.76-7.82v7.82h-2.45V49.08h2.45l4.77,7.83v-7.83h2.44V60.96z"/>
			<path class="st0" d="M188.56,57.84c0-0.46-0.16-0.82-0.49-1.06c-0.33-0.25-0.91-0.51-1.76-0.78c-0.85-0.27-1.52-0.54-2.01-0.81
				c-1.35-0.73-2.02-1.71-2.02-2.95c0-0.64,0.18-1.21,0.54-1.72c0.36-0.5,0.88-0.9,1.56-1.18c0.68-0.28,1.44-0.42,2.28-0.42
				c0.85,0,1.6,0.15,2.27,0.46c0.66,0.31,1.18,0.74,1.55,1.3c0.37,0.56,0.55,1.2,0.55,1.91h-2.45c0-0.54-0.17-0.97-0.51-1.27
				c-0.34-0.3-0.82-0.45-1.44-0.45c-0.6,0-1.06,0.13-1.39,0.38c-0.33,0.25-0.5,0.59-0.5,1c0,0.39,0.19,0.71,0.58,0.97
				c0.39,0.26,0.96,0.5,1.72,0.73c1.39,0.42,2.41,0.94,3.04,1.56c0.64,0.62,0.95,1.39,0.95,2.32c0,1.03-0.39,1.83-1.17,2.42
				c-0.78,0.58-1.83,0.88-3.14,0.88c-0.91,0-1.75-0.17-2.5-0.5c-0.75-0.33-1.32-0.79-1.72-1.37c-0.39-0.58-0.59-1.26-0.59-2.02h2.46
				c0,1.31,0.78,1.97,2.35,1.97c0.58,0,1.04-0.12,1.36-0.35C188.4,58.6,188.56,58.27,188.56,57.84z"/>
			<path class="st0" d="M202.28,51.06h-3.64v9.9h-2.45v-9.9h-3.59v-1.98h9.67V51.06z"/>
			<path class="st0" d="M207.11,60.96h-2.45V49.08h2.45V60.96z"/>
			<path class="st0" d="M218.92,51.06h-3.64v9.9h-2.45v-9.9h-3.59v-1.98h9.67V51.06z"/>
			<path class="st0" d="M230.14,49.08v7.82c0,1.3-0.41,2.33-1.22,3.08c-0.81,0.76-1.92,1.13-3.33,1.13c-1.39,0-2.49-0.37-3.3-1.1
				c-0.82-0.73-1.23-1.74-1.25-3.03v-7.91h2.45v7.84c0,0.78,0.19,1.34,0.56,1.7c0.37,0.36,0.89,0.53,1.55,0.53
				c1.38,0,2.08-0.72,2.1-2.17v-7.91H230.14z"/>
			<path class="st0" d="M241.93,51.06h-3.64v9.9h-2.45v-9.9h-3.59v-1.98h9.67V51.06z"/>
		</g>
	</g>
</g>
</svg>
